{
.appVersion = "930";
DisplayStrings = (
""
);
copyright = "Copyright 2016 Jeremy Tribby. SIL OFL License v1.1.";
date = "2016-07-12 00:27:02 +0000";
designer = "Jeremy Tribby";
designerURL = "http://tribby.com/";
familyName = Barlow;
featurePrefixes = (
{
automatic = 1;
code = "languagesystem DFLT dflt;\012";
name = Languagesystems;
}
);
features = (
{
automatic = 1;
code = "sub hyphen hyphen by hyphen_hyphen.liga;\012";
name = liga;
}
);
fontMaster = (
{
alignmentZones = (
"{800, 16}",
"{700, 10}",
"{500, 6}",
"{0, -10}",
"{-200, -12}"
);
ascender = 800;
capHeight = 700;
customParameters = (
{
name = paramArea;
value = "488";
},
{
name = paramDepth;
value = "16";
},
{
name = paramOver;
value = "0";
}
);
descender = -200;
horizontalStems = (
22,
22
);
id = "262880E7-CFE1-4BDA-902E-E24798F3240A";
userData = {
GSCornerRadius = 8;
GSOffsetHorizontal = 11;
GSOffsetMakeStroke = 1;
GSOffsetVertical = 10;
noodleExtremesAndInflections = 1;
noodleRemoveOverlap = 1;
noodleThickness = "22.0";
};
verticalStems = (
21,
21
);
visible = 1;
weight = Light;
weightValue = 23;
xHeight = 500;
},
{
alignmentZones = (
"{800, 16}",
"{700, 11}",
"{500, 9}",
"{0, -11}",
"{-200, -10}"
);
ascender = 800;
capHeight = 700;
customParameters = (
{
name = paramArea;
value = "200";
},
{
name = paramDepth;
value = "20";
},
{
name = paramOver;
value = "0";
}
);
descender = -200;
horizontalStems = (
198,
208
);
id = "4F25946F-63AC-42D6-8D55-01CF6A99025B";
userData = {
GSCornerRadius = 12;
GSOffsetHorizontal = 104;
GSOffsetMakeStroke = 1;
GSOffsetVertical = 102;
noodleExtremesAndInflections = 1;
noodleRemoveOverlap = 1;
noodleThickness = "50.0";
};
verticalStems = (
202,
168
);
visible = 1;
weight = Bold;
weightValue = 202;
xHeight = 500;
}
);
glyphs = (
{
color = 1;
glyphname = A;
lastChange = "2016-10-19 07:48:54 +0000";
layers = (
{
layerId = "262880E7-CFE1-4BDA-902E-E24798F3240A";
paths = (
{
closed = 1;
nodes = (
"22 0 LINE",
"180 656 LINE",
"338 0 LINE",
"360 0 LINE",
"191 700 LINE",
"169 700 LINE",
"0 0 LINE"
);
},
{
closed = 1;
nodes = (
"303 145 LINE",
"303 166 LINE",
"56 166 LINE",
"56 145 LINE"
);
}
);
width = 360;
},
{
layerId = "4F25946F-63AC-42D6-8D55-01CF6A99025B";
paths = (
{
closed = 1;
nodes = (
"208 0 LINE",
"311 450 LINE",
"414 0 LINE",
"622 0 LINE",
"415 700 LINE",
"207 700 LINE",
"0 0 LINE"
);
},
{
closed = 1;
nodes = (
"461 87 LINE",
"461 240 LINE",
"161 240 LINE",
"161 87 LINE"
);
}
);
width = 622;
},
{
associatedMasterId = "262880E7-CFE1-4BDA-902E-E24798F3240A";
layerId = "09B97E43-C149-48A2-81D6-63259EF6020F";
name = "DemiBold{120,100}";
paths = (
{
closed = 1;
nodes = (
"137 0 LINE",
"254 529 LINE",
"371 0 LINE",
"491 0 LINE",
"314 700 LINE",
"194 700 LINE",
"17 0 LINE"
);
},
{
closed = 1;
nodes = (
"391 106 LINE",
"391 212 LINE",
"116 212 LINE",
"116 106 LINE"
);
}
);
width = 508;
}
);
unicode = 0041;
},
{
color = 1;
glyphname = B;
lastChange = "2016-10-19 09:22:59 +0000";
layers = (
{
layerId = "262880E7-CFE1-4BDA-902E-E24798F3240A";
paths = (
{
closed = 1;
nodes = (
"254 351 LINE SMOOTH",
"369 351 OFFCURVE",
"440 415 OFFCURVE",
"440 523 CURVE SMOOTH",
"440 631 OFFCURVE",
"369 700 OFFCURVE",
"254 700 CURVE SMOOTH",
"108 700 LINE",
"108 351 LINE"
);
},
{
closed = 1;
nodes = (
"254 0 LINE SMOOTH",
"369 0 OFFCURVE",
"440 71 OFFCURVE",
"440 186 CURVE SMOOTH",
"440 301 OFFCURVE",
"369 372 OFFCURVE",
"254 372 CURVE SMOOTH",
"108 372 LINE",
"108 0 LINE"
);
},
{
closed = 1;
nodes = (
"130 351 LINE",
"254 351 LINE SMOOTH",
"356 351 OFFCURVE",
"418 288 OFFCURVE",
"418 186 CURVE SMOOTH",
"418 84 OFFCURVE",
"356 22 OFFCURVE",
"254 22 CURVE SMOOTH",
"130 22 LINE"
);
},
{
closed = 1;
nodes = (
"130 679 LINE",
"254 679 LINE SMOOTH",
"356 679 OFFCURVE",
"418 618 OFFCURVE",
"418 523 CURVE SMOOTH",
"418 428 OFFCURVE",
"356 372 OFFCURVE",
"254 372 CURVE SMOOTH",
"130 372 LINE"
);
}
);
width = 476;
},
{
layerId = "4F25946F-63AC-42D6-8D55-01CF6A99025B";
paths = (
{
closed = 1;
nodes = (
"274 312 LINE SMOOTH",
"420 312 OFFCURVE",
"518 388 OFFCURVE",
"518 502 CURVE SMOOTH",
"518 621 OFFCURVE",
"418 700 OFFCURVE",
"269 700 CURVE",
"21 700 LINE",
"21 312 LINE"
);
},
{
closed = 1;
nodes = (
"298 0 LINE SMOOTH",
"443 0 OFFCURVE",
"539 82 OFFCURVE",
"539 205 CURVE SMOOTH",
"539 331 OFFCURVE",
"433 415 OFFCURVE",
"273 415 CURVE",
"21 415 LINE",
"21 0 LINE"
);
},
{
closed = 1;
nodes = (
"214 276 LINE",
"279 276 LINE SMOOTH",
"310 276 OFFCURVE",
"330 259 OFFCURVE",
"330 233 CURVE SMOOTH",
"330 206 OFFCURVE",
"309 188 OFFCURVE",
"278 188 CURVE SMOOTH",
"214 188 LINE"
);
},
{
closed = 1;
nodes = (
"214 515 LINE",
"273 515 LINE",
"302 515 OFFCURVE",
"322 497 OFFCURVE",
"322 470 CURVE SMOOTH",
"322 444 OFFCURVE",
"302 427 OFFCURVE",
"273 427 CURVE",
"214 427 LINE"
);
}
);
width = 545;
}
);
unicode = 0042;
},
{
color = 1;
glyphname = C;
lastChange = "2016-10-19 09:22:59 +0000";
layers = (
{
layerId = "262880E7-CFE1-4BDA-902E-E24798F3240A";
paths = (
{
closed = 1;
nodes = (
"344 -9 OFFCURVE",
"406 50 OFFCURVE",
"406 150 CURVE SMOOTH",
"406 152 LINE",
"384 152 LINE",
"384 150 LINE SMOOTH",
"384 64 OFFCURVE",
"332 11 OFFCURVE",
"245 11 CURVE SMOOTH",
"158 11 OFFCURVE",
"106 64 OFFCURVE",
"106 150 CURVE SMOOTH",
"106 550 LINE SMOOTH",
"106 637 OFFCURVE",
"160 690 OFFCURVE",
"245 690 CURVE SMOOTH",
"330 690 OFFCURVE",
"384 637 OFFCURVE",
"384 550 CURVE SMOOTH",
"384 548 LINE",
"406 548 LINE",
"406 550 LINE SMOOTH",
"406 650 OFFCURVE",
"344 709 OFFCURVE",
"245 709 CURVE SMOOTH",
"146 709 OFFCURVE",
"84 650 OFFCURVE",
"84 550 CURVE SMOOTH",
"84 150 LINE SMOOTH",
"84 50 OFFCURVE",
"146 -9 OFFCURVE",
"245 -9 CURVE SMOOTH"
);
}
);
width = 442;
},
{
layerId = "4F25946F-63AC-42D6-8D55-01CF6A99025B";
paths = (
{
closed = 1;
nodes = (
"418 -10 OFFCURVE",
"519 67 OFFCURVE",
"519 183 CURVE SMOOTH",
"519 278 LINE",
"311 278 LINE",
"311 233 LINE SMOOTH",
"311 206 OFFCURVE",
"293 188 OFFCURVE",
"267 188 CURVE SMOOTH",
"241 188 OFFCURVE",
"223 206 OFFCURVE",
"223 233 CURVE SMOOTH",
"223 467 LINE SMOOTH",
"223 494 OFFCURVE",
"241 512 OFFCURVE",
"267 512 CURVE SMOOTH",
"293 512 OFFCURVE",
"311 494 OFFCURVE",
"311 467 CURVE SMOOTH",
"311 422 LINE",
"519 422 LINE",
"519 517 LINE SMOOTH",
"519 633 OFFCURVE",
"418 710 OFFCURVE",
"267 710 CURVE SMOOTH",
"116 710 OFFCURVE",
"15 633 OFFCURVE",
"15 517 CURVE SMOOTH",
"15 183 LINE SMOOTH",
"15 67 OFFCURVE",
"116 -10 OFFCURVE",
"267 -10 CURVE SMOOTH"
);
}
);
width = 525;
}
);
unicode = 0043;
},
{
color = 1;
glyphname = D;
lastChange = "2016-10-19 09:22:59 +0000";
layers = (
{
layerId = "262880E7-CFE1-4BDA-902E-E24798F3240A";
paths = (
{
closed = 1;
nodes = (
"259 0 LINE SMOOTH",
"362 0 OFFCURVE",
"430 65 OFFCURVE",
"430 180 CURVE SMOOTH",
"430 520 LINE SMOOTH",
"430 635 OFFCURVE",
"362 700 OFFCURVE",
"259 700 CURVE SMOOTH",
"108 700 LINE",
"108 0 LINE"
);
},
{
closed = 1;
nodes = (
"130 679 LINE",
"259 679 LINE SMOOTH",
"348 679 OFFCURVE",
"408 622 OFFCURVE",
"408 520 CURVE SMOOTH",
"408 180 LINE SMOOTH",
"408 79 OFFCURVE",
"348 22 OFFCURVE",
"259 22 CURVE SMOOTH",
"130 22 LINE"
);
}
);
width = 514;
},
{
layerId = "4F25946F-63AC-42D6-8D55-01CF6A99025B";
paths = (
{
closed = 1;
nodes = (
"308 0 LINE SMOOTH",
"439 0 OFFCURVE",
"520 85 OFFCURVE",
"520 223 CURVE SMOOTH",
"520 477 LINE SMOOTH",
"520 615 OFFCURVE",
"439 700 OFFCURVE",
"308 700 CURVE SMOOTH",
"21 700 LINE",
"21 0 LINE"
);
},
{
closed = 1;
nodes = (
"229 526 LINE",
"264 526 LINE SMOOTH",
"291 526 OFFCURVE",
"308 505 OFFCURVE",
"308 471 CURVE SMOOTH",
"308 229 LINE SMOOTH",
"308 195 OFFCURVE",
"291 174 OFFCURVE",
"264 174 CURVE SMOOTH",
"229 174 LINE"
);
}
);
width = 535;
},
{
associatedMasterId = "262880E7-CFE1-4BDA-902E-E24798F3240A";
layerId = "5FA87B53-3B99-492D-B797-6707203108CA";
name = "DemiBold{119,100}";
paths = (
{
closed = 1;
nodes = (
"302 0 LINE SMOOTH",
"420 0 OFFCURVE",
"495 76 OFFCURVE",
"495 203 CURVE SMOOTH",
"495 497 LINE SMOOTH",
"495 624 OFFCURVE",
"420 700 OFFCURVE",
"302 700 CURVE SMOOTH",
"78 700 LINE",
"78 0 LINE"
);
},
{
closed = 1;
nodes = (
"200 581 LINE",
"279 581 LINE SMOOTH",
"334 581 OFFCURVE",
"371 543 OFFCURVE",
"371 478 CURVE SMOOTH",
"371 226 LINE SMOOTH",
"371 161 OFFCURVE",
"334 124 OFFCURVE",
"279 124 CURVE SMOOTH",
"200 124 LINE"
);
}
);
width = 559;
}
);
unicode = 0044;
},
{
color = 1;
glyphname = E;
lastChange = "2016-10-19 09:22:59 +0000";
layers = (
{
layerId = "262880E7-CFE1-4BDA-902E-E24798F3240A";
paths = (
{
closed = 1;
nodes = (
"429 0 LINE",
"429 21 LINE",
"130 21 LINE",
"130 679 LINE",
"429 679 LINE",
"429 700 LINE",
"108 700 LINE",
"108 0 LINE"
);
},
{
closed = 1;
nodes = (
"332 340 LINE",
"332 361 LINE",
"119 361 LINE",
"119 340 LINE"
);
}
);
width = 453;
},
{
layerId = "4F25946F-63AC-42D6-8D55-01CF6A99025B";
paths = (
{
closed = 1;
nodes = (
"483 0 LINE",
"483 198 LINE",
"229 198 LINE",
"229 502 LINE",
"483 502 LINE",
"483 700 LINE",
"21 700 LINE",
"21 0 LINE"
);
},
{
closed = 1;
nodes = (
"381 261 LINE",
"381 439 LINE",
"143 439 LINE",
"143 261 LINE"
);
}
);
width = 489;
},
{
associatedMasterId = "262880E7-CFE1-4BDA-902E-E24798F3240A";
layerId = "DE3E8A9A-5DAD-493A-9E98-F56387BAB1C1";
name = "DemiBold{119,100}";
paths = (
{
closed = 1;
nodes = (
"494 0 LINE",
"494 111 LINE",
"229 111 LINE",
"229 589 LINE",
"494 589 LINE",
"494 700 LINE",
"105 700 LINE",
"105 0 LINE"
);
},
{
closed = 1;
nodes = (
"394 300 LINE",
"394 400 LINE",
"177 400 LINE",
"177 300 LINE"
);
}
);
width = 559;
}
);
unicode = 0045;
},
{
color = 1;
glyphname = F;
lastChange = "2016-10-19 09:22:59 +0000";
layers = (
{
layerId = "262880E7-CFE1-4BDA-902E-E24798F3240A";
paths = (
{
closed = 1;
nodes = (
"130 0 LINE",
"130 679 LINE",
"429 679 LINE",
"429 700 LINE",
"108 700 LINE",
"108 0 LINE"
);
},
{
closed = 1;
nodes = (
"332 340 LINE",
"332 361 LINE",
"119 361 LINE",
"119 340 LINE"
);
}
);
width = 441;
},
{
layerId = "4F25946F-63AC-42D6-8D55-01CF6A99025B";
paths = (
{
closed = 1;
nodes = (
"229 0 LINE",
"229 502 LINE",
"497 502 LINE",
"497 700 LINE",
"21 700 LINE",
"21 0 LINE"
);
},
{
closed = 1;
nodes = (
"393 261 LINE",
"393 439 LINE",
"142 439 LINE",
"142 261 LINE"
);
}
);
width = 500;
},
{
associatedMasterId = "262880E7-CFE1-4BDA-902E-E24798F3240A";
layerId = "E70C252C-4698-4A26-900C-4F3FD049D2BA";
name = "DemiBold{119,100}";
paths = (
{
closed = 1;
nodes = (
"232 0 LINE",
"232 589 LINE",
"493 589 LINE",
"493 700 LINE",
"106 700 LINE",
"106 0 LINE"
);
},
{
closed = 1;
nodes = (
"393 300 LINE",
"393 400 LINE",
"180 400 LINE",
"180 300 LINE"
);
}
);
width = 544;
}
);
unicode = 0046;
},
{
color = 1;
glyphname = G;
lastChange = "2016-10-19 09:22:59 +0000";
layers = (
{
layerId = "262880E7-CFE1-4BDA-902E-E24798F3240A";
paths = (
{
closed = 1;
nodes = (
"344 -9 OFFCURVE",
"406 51 OFFCURVE",
"406 150 CURVE",
"406 361 LINE",
"245 361 LINE",
"245 340 LINE",
"384 340 LINE",
"384 150 LINE",
"384 63 OFFCURVE",
"332 11 OFFCURVE",
"245 11 CURVE SMOOTH",
"158 11 OFFCURVE",
"106 63 OFFCURVE",
"106 150 CURVE",
"106 550 LINE",
"106 637 OFFCURVE",
"158 690 OFFCURVE",
"245 690 CURVE SMOOTH",
"332 690 OFFCURVE",
"384 637 OFFCURVE",
"384 550 CURVE",
"406 550 LINE",
"406 649 OFFCURVE",
"344 709 OFFCURVE",
"245 709 CURVE SMOOTH",
"146 709 OFFCURVE",
"84 649 OFFCURVE",
"84 550 CURVE",
"84 150 LINE",
"84 51 OFFCURVE",
"146 -9 OFFCURVE",
"245 -9 CURVE SMOOTH"
);
}
);
width = 490;
},
{
layerId = "4F25946F-63AC-42D6-8D55-01CF6A99025B";
paths = (
{
closed = 1;
nodes = (
"418 -10 OFFCURVE",
"519 88 OFFCURVE",
"519 234 CURVE SMOOTH",
"519 403 LINE",
"267 403 LINE",
"267 287 LINE",
"311 287 LINE",
"311 244 LINE SMOOTH",
"311 210 OFFCURVE",
"293 188 OFFCURVE",
"267 188 CURVE SMOOTH",
"241 188 OFFCURVE",
"223 210 OFFCURVE",
"223 244 CURVE SMOOTH",
"223 456 LINE SMOOTH",
"223 490 OFFCURVE",
"241 512 OFFCURVE",
"267 512 CURVE SMOOTH",
"293 512 OFFCURVE",
"311 490 OFFCURVE",
"311 456 CURVE",
"519 456 LINE",
"519 602 OFFCURVE",
"418 710 OFFCURVE",
"267 710 CURVE SMOOTH",
"116 710 OFFCURVE",
"15 612 OFFCURVE",
"15 466 CURVE SMOOTH",
"15 234 LINE SMOOTH",
"15 88 OFFCURVE",
"116 -10 OFFCURVE",
"267 -10 CURVE SMOOTH"
);
}
);
width = 532;
},
{
associatedMasterId = "262880E7-CFE1-4BDA-902E-E24798F3240A";
layerId = "4BB53C67-4989-441E-8A0D-7E4F5FC64094";
name = "Medium {91, 100}";
paths = (
{
closed = 1;
nodes = (
"426 -9 OFFCURVE",
"504 65 OFFCURVE",
"504 182 CURVE",
"504 376 LINE",
"307 376 LINE",
"307 290 LINE",
"410 290 LINE",
"410 182 LINE",
"410 115 OFFCURVE",
"370 74 OFFCURVE",
"307 74 CURVE SMOOTH",
"243 74 OFFCURVE",
"204 115 OFFCURVE",
"204 182 CURVE",
"204 518 LINE",
"204 585 OFFCURVE",
"243 626 OFFCURVE",
"307 626 CURVE SMOOTH",
"370 626 OFFCURVE",
"410 585 OFFCURVE",
"410 518 CURVE",
"504 518 LINE",
"504 635 OFFCURVE",
"426 709 OFFCURVE",
"307 709 CURVE SMOOTH",
"187 709 OFFCURVE",
"110 635 OFFCURVE",
"110 518 CURVE",
"110 182 LINE",
"110 65 OFFCURVE",
"187 -9 OFFCURVE",
"307 -9 CURVE SMOOTH"
);
}
);
width = 602;
}
);
unicode = 0047;
},
{
color = 1;
glyphname = H;
lastChange = "2016-10-19 09:22:59 +0000";
layers = (
{
layerId = "262880E7-CFE1-4BDA-902E-E24798F3240A";
paths = (
{
closed = 1;
nodes = (
"430 0 LINE",
"430 700 LINE",
"408 700 LINE",
"408 0 LINE"
);
},
{
closed = 1;
nodes = (
"130 0 LINE",
"130 700 LINE",
"108 700 LINE",
"108 0 LINE"
);
},
{
closed = 1;
nodes = (
"413 340 LINE",
"413 361 LINE",
"125 361 LINE",
"125 340 LINE"
);
}
);
width = 538;
},
{
layerId = "4F25946F-63AC-42D6-8D55-01CF6A99025B";
paths = (
{
closed = 1;
nodes = (
"529 0 LINE",
"529 700 LINE",
"319 700 LINE",
"319 0 LINE"
);
},
{
closed = 1;
nodes = (
"231 0 LINE",
"231 700 LINE",
"21 700 LINE",
"21 0 LINE"
);
},
{
closed = 1;
nodes = (
"335 248 LINE",
"335 446 LINE",
"215 446 LINE",
"215 248 LINE"
);
}
);
width = 550;
}
);
unicode = 0048;
},
{
color = 1;
glyphname = I;
lastChange = "2016-10-19 09:22:59 +0000";
layers = (
{
layerId = "262880E7-CFE1-4BDA-902E-E24798F3240A";
paths = (
{
closed = 1;
nodes = (
"130 0 LINE",
"130 700 LINE",
"108 700 LINE",
"108 0 LINE"
);
}
);
width = 238;
},
{
layerId = "4F25946F-63AC-42D6-8D55-01CF6A99025B";
paths = (
{
closed = 1;
nodes = (
"223 0 LINE",
"223 700 LINE",
"21 700 LINE",
"21 0 LINE"
);
}
);
width = 244;
}
);
unicode = 0049;
},
{
color = 1;
glyphname = J;
lastChange = "2016-10-19 09:22:59 +0000";
layers = (
{
layerId = "262880E7-CFE1-4BDA-902E-E24798F3240A";
paths = (
{
closed = 1;
nodes = (
"358 -11 OFFCURVE",
"418 50 OFFCURVE",
"418 150 CURVE SMOOTH",
"418 700 LINE",
"396 700 LINE",
"396 150 LINE",
"396 64 OFFCURVE",
"344 11 OFFCURVE",
"260 11 CURVE SMOOTH",
"176 11 OFFCURVE",
"124 64 OFFCURVE",
"124 150 CURVE SMOOTH",
"124 195 LINE",
"102 195 LINE",
"102 150 LINE SMOOTH",
"102 50 OFFCURVE",
"162 -11 OFFCURVE",
"260 -11 CURVE SMOOTH"
);
}
);
width = 514;
},
{
layerId = "4F25946F-63AC-42D6-8D55-01CF6A99025B";
paths = (
{
closed = 1;
nodes = (
"399 -10 OFFCURVE",
"498 88 OFFCURVE",
"498 235 CURVE",
"493 702 LINE",
"285 700 LINE",
"290 243 LINE",
"290 210 OFFCURVE",
"274 188 OFFCURVE",
"251 188 CURVE SMOOTH",
"228 188 OFFCURVE",
"212 210 OFFCURVE",
"212 244 CURVE SMOOTH",
"212 290 LINE",
"4 290 LINE",
"4 234 LINE SMOOTH",
"4 88 OFFCURVE",
"103 -10 OFFCURVE",
"251 -10 CURVE SMOOTH"
);
}
);
width = 514;
}
);
unicode = 004A;
},
{
color = 1;
glyphname = K;
lastChange = "2016-10-19 09:22:59 +0000";
layers = (
{
layerId = "262880E7-CFE1-4BDA-902E-E24798F3240A";
paths = (
{
closed = 1;
nodes = (
"440 0 LINE",
"138 350 LINE",
"440 700 LINE",
"418 700 LINE",
"116 350 LINE",
"418 0 LINE"
);
},
{
closed = 1;
nodes = (
"130 0 LINE",
"130 700 LINE",
"108 700 LINE",
"108 0 LINE"
);
}
);
width = 428;
},
{
guideLines = (
{
angle = 180;
position = "{486, 218}";
showMeasurement = 1;
}
);
layerId = "4F25946F-63AC-42D6-8D55-01CF6A99025B";
paths = (
{
closed = 1;
nodes = (
"555 0 LINE",
"354 350 LINE",
"552 700 LINE",
"336 700 LINE",
"154 350 LINE",
"339 0 LINE"
);
},
{
closed = 1;
nodes = (
"229 0 LINE",
"229 700 LINE",
"21 700 LINE",
"21 0 LINE"
);
}
);
width = 549;
},
{
associatedMasterId = "262880E7-CFE1-4BDA-902E-E24798F3240A";
layerId = "52A147BE-A087-4D72-9A5D-908B44B10E17";
name = "Medium {91, 100}";
paths = (
{
closed = 1;
nodes = (
"524 0 LINE",
"260 350 LINE",
"522 700 LINE",
"407 700 LINE",
"142 350 LINE",
"407 0 LINE"
);
},
{
closed = 1;
nodes = (
"218 0 LINE",
"218 700 LINE",
"124 700 LINE",
"124 0 LINE"
);
}
);
width = 589;
},
{
associatedMasterId = "4F25946F-63AC-42D6-8D55-01CF6A99025B";
layerId = "57219196-2667-4E9B-A894-DD00D1913D76";
name = "Bold Oct 15 16, 02:53";
paths = (
{
closed = 1;
nodes = (
"590 0 LINE",
"413 350 LINE",
"585 700 LINE",
"335 700 LINE",
"193 350 LINE",
"335 0 LINE"
);
},
{
closed = 1;
nodes = (
"265 0 LINE",
"265 700 LINE",
"57 700 LINE",
"57 0 LINE"
);
}
);
width = 593;
}
);
unicode = 004B;
},
{
color = 1;
glyphname = L;
lastChange = "2016-10-19 09:22:59 +0000";
layers = (
{
layerId = "262880E7-CFE1-4BDA-902E-E24798F3240A";
paths = (
{
closed = 1;
nodes = (
"419 0 LINE",
"419 21 LINE",
"130 21 LINE",
"130 700 LINE",
"108 700 LINE",
"108 0 LINE"
);
}
);
width = 431;
},
{
layerId = "4F25946F-63AC-42D6-8D55-01CF6A99025B";
paths = (
{
closed = 1;
nodes = (
"478 0 LINE",
"478 192 LINE",
"229 192 LINE",
"229 700 LINE",
"21 700 LINE",
"21 0 LINE"
);
}
);
width = 481;
}
);
unicode = 004C;
},
{
color = 1;
glyphname = M;
lastChange = "2016-10-19 09:22:59 +0000";
layers = (
{
layerId = "262880E7-CFE1-4BDA-902E-E24798F3240A";
paths = (
{
closed = 1;
nodes = (
"130 0 LINE",
"130 653 LINE",
"287 324 LINE",
"444 653 LINE",
"444 0 LINE",
"466 0 LINE",
"466 700 LINE",
"444 700 LINE",
"287 372 LINE",
"130 700 LINE",
"108 700 LINE",
"108 0 LINE"
);
}
);
width = 574;
},
{
layerId = "4F25946F-63AC-42D6-8D55-01CF6A99025B";
paths = (
{
closed = 1;
nodes = (
"233 0 LINE",
"233 406 LINE",
"323 274 LINE",
"413 406 LINE",
"413 0 LINE",
"625 0 LINE",
"625 698 LINE",
"422 698 LINE",
"323 542 LINE",
"221 702 LINE",
"21 702 LINE",
"21 0 LINE"
);
}
);
width = 646;
},
{
associatedMasterId = "4F25946F-63AC-42D6-8D55-01CF6A99025B";
layerId = "BF6C6FBC-ABCF-4728-B32F-BE7F013B92F9";
name = "Medium {91, 100}";
paths = (
{
closed = 1;
nodes = (
"179 0 LINE",
"181 520 LINE",
"312 265 LINE",
"445 520 LINE",
"445 0 LINE",
"538 0 LINE",
"538 699 LINE",
"447 699 LINE",
"312 437 LINE",
"176 701 LINE",
"87 701 LINE",
"87 0 LINE"
);
}
);
width = 625;
}
);
unicode = 004D;
},
{
color = 1;
glyphname = N;
lastChange = "2016-10-19 09:22:59 +0000";
layers = (
{
layerId = "262880E7-CFE1-4BDA-902E-E24798F3240A";
paths = (
{
closed = 1;
nodes = (
"130 0 LINE",
"130 648 LINE",
"408 0 LINE",
"430 0 LINE",
"430 700 LINE",
"408 700 LINE",
"408 52 LINE",
"130 700 LINE",
"108 700 LINE",
"108 0 LINE"
);
}
);
width = 538;
},
{
layerId = "4F25946F-63AC-42D6-8D55-01CF6A99025B";
paths = (
{
closed = 1;
nodes = (
"229 -5 LINE",
"232 284 LINE",
"382 -5 LINE",
"556 -5 LINE",
"556 695 LINE",
"348 695 LINE",
"348 389 LINE",
"205 695 LINE",
"21 695 LINE",
"21 -5 LINE"
);
}
);
width = 577;
},
{
associatedMasterId = "4F25946F-63AC-42D6-8D55-01CF6A99025B";
layerId = "0B1885C1-B30B-43AF-BA88-F41889FEAFD7";
name = "DemiBold{119,100}";
paths = (
{
closed = 1;
nodes = (
"192 -3 LINE",
"194 423 LINE",
"403 -3 LINE",
"507 -3 LINE",
"507 697 LINE",
"385 697 LINE",
"385 263 LINE",
"179 697 LINE",
"70 697 LINE",
"70 -3 LINE"
);
}
);
width = 582;
}
);
unicode = 004E;
},
{
color = 1;
glyphname = O;
lastChange = "2016-10-19 09:22:59 +0000";
layers = (
{
layerId = "262880E7-CFE1-4BDA-902E-E24798F3240A";
paths = (
{
closed = 1;
nodes = (
"342 -9 OFFCURVE",
"414 60 OFFCURVE",
"414 150 CURVE SMOOTH",
"414 550 LINE SMOOTH",
"414 640 OFFCURVE",
"342 709 OFFCURVE",
"249 709 CURVE SMOOTH",
"156 709 OFFCURVE",
"84 640 OFFCURVE",
"84 550 CURVE SMOOTH",
"84 150 LINE SMOOTH",
"84 60 OFFCURVE",
"156 -9 OFFCURVE",
"249 -9 CURVE SMOOTH"
);
},
{
closed = 1;
nodes = (
"166 12 OFFCURVE",
"106 74 OFFCURVE",
"106 152 CURVE SMOOTH",
"106 548 LINE SMOOTH",
"106 627 OFFCURVE",
"168 688 OFFCURVE",
"249 688 CURVE SMOOTH",
"330 688 OFFCURVE",
"392 627 OFFCURVE",
"392 548 CURVE SMOOTH",
"392 152 LINE SMOOTH",
"392 74 OFFCURVE",
"332 12 OFFCURVE",
"249 12 CURVE SMOOTH"
);
}
);
width = 498;
},
{
layerId = "4F25946F-63AC-42D6-8D55-01CF6A99025B";
paths = (
{
closed = 1;
nodes = (
"431 -10 OFFCURVE",
"535 87 OFFCURVE",
"535 233 CURVE SMOOTH",
"535 467 LINE SMOOTH",
"535 613 OFFCURVE",
"431 710 OFFCURVE",
"275 710 CURVE SMOOTH",
"119 710 OFFCURVE",
"15 613 OFFCURVE",
"15 467 CURVE SMOOTH",
"15 233 LINE SMOOTH",
"15 87 OFFCURVE",
"119 -10 OFFCURVE",
"275 -10 CURVE SMOOTH"
);
},
{
closed = 1;
nodes = (
"246 188 OFFCURVE",
"227 208 OFFCURVE",
"227 237 CURVE SMOOTH",
"227 463 LINE SMOOTH",
"227 492 OFFCURVE",
"246 512 OFFCURVE",
"275 512 CURVE SMOOTH",
"304 512 OFFCURVE",
"323 492 OFFCURVE",
"323 463 CURVE SMOOTH",
"323 237 LINE SMOOTH",
"323 208 OFFCURVE",
"304 188 OFFCURVE",
"275 188 CURVE SMOOTH"
);
}
);
width = 550;
}
);
unicode = 004F;
},
{
color = 1;
glyphname = P;
lastChange = "2016-10-19 09:22:59 +0000";
layers = (
{
layerId = "262880E7-CFE1-4BDA-902E-E24798F3240A";
paths = (
{
closed = 1;
nodes = (
"130 0 LINE",
"130 679 LINE",
"254 679 LINE SMOOTH",
"354 679 OFFCURVE",
"415 616 OFFCURVE",
"415 513 CURVE SMOOTH",
"415 409 OFFCURVE",
"354 346 OFFCURVE",
"254 346 CURVE SMOOTH",
"125 346 LINE",
"125 325 LINE",
"254 325 LINE SMOOTH",
"367 325 OFFCURVE",
"437 397 OFFCURVE",
"437 512 CURVE SMOOTH",
"437 629 OFFCURVE",
"367 700 OFFCURVE",
"254 700 CURVE SMOOTH",
"108 700 LINE",
"108 0 LINE"
);
}
);
width = 461;
},
{
layerId = "4F25946F-63AC-42D6-8D55-01CF6A99025B";
paths = (
{
closed = 1;
nodes = (
"233 0 LINE",
"233 512 LINE",
"262 512 LINE SMOOTH",
"291 512 OFFCURVE",
"311 492 OFFCURVE",
"311 462 CURVE SMOOTH",
"311 426 OFFCURVE",
"291 402 OFFCURVE",
"262 402 CURVE SMOOTH",
"217 402 LINE",
"217 223 LINE",
"301 223 LINE SMOOTH",
"434 223 OFFCURVE",
"523 320 OFFCURVE",
"523 465 CURVE SMOOTH",
"523 606 OFFCURVE",
"431 700 OFFCURVE",
"292 700 CURVE SMOOTH",
"21 700 LINE",
"21 0 LINE"
);
}
);
width = 529;
}
);
unicode = 0050;
},
{
color = 1;
glyphname = Q;
lastChange = "2016-10-19 09:23:00 +0000";
layers = (
{
layerId = "262880E7-CFE1-4BDA-902E-E24798F3240A";
paths = (
{
closed = 1;
nodes = (
"334 -11 OFFCURVE",
"406 60 OFFCURVE",
"406 150 CURVE SMOOTH",
"406 550 LINE SMOOTH",
"406 640 OFFCURVE",
"334 711 OFFCURVE",
"245 711 CURVE SMOOTH",
"156 711 OFFCURVE",
"84 640 OFFCURVE",
"84 550 CURVE SMOOTH",
"84 150 LINE SMOOTH",
"84 60 OFFCURVE",
"156 -11 OFFCURVE",
"245 -11 CURVE SMOOTH"
);
},
{
closed = 1;
nodes = (
"384 -51 LINE",
"187 16 LINE",
"187 0 LINE",
"384 -72 LINE"
);
},
{
closed = 1;
nodes = (
"166 11 OFFCURVE",
"106 72 OFFCURVE",
"106 150 CURVE SMOOTH",
"106 550 LINE SMOOTH",
"106 629 OFFCURVE",
"168 690 OFFCURVE",
"245 690 CURVE SMOOTH",
"322 690 OFFCURVE",
"384 629 OFFCURVE",
"384 550 CURVE SMOOTH",
"384 150 LINE SMOOTH",
"384 72 OFFCURVE",
"324 11 OFFCURVE",
"245 11 CURVE SMOOTH"
);
}
);
width = 498;
},
{
layerId = "4F25946F-63AC-42D6-8D55-01CF6A99025B";
paths = (
{
closed = 1;
nodes = (
"425 -10 OFFCURVE",
"527 87 OFFCURVE",
"527 233 CURVE SMOOTH",
"527 467 LINE SMOOTH",
"527 613 OFFCURVE",
"425 710 OFFCURVE",
"271 710 CURVE SMOOTH",
"117 710 OFFCURVE",
"15 613 OFFCURVE",
"15 467 CURVE SMOOTH",
"15 233 LINE SMOOTH",
"15 87 OFFCURVE",
"117 -10 OFFCURVE",
"271 -10 CURVE SMOOTH"
);
},
{
closed = 1;
nodes = (
"543 113 LINE",
"219 118 LINE",
"219 -6 LINE",
"535 -43 LINE"
);
},
{
closed = 1;
nodes = (
"245 188 OFFCURVE",
"227 206 OFFCURVE",
"227 233 CURVE SMOOTH",
"227 467 LINE SMOOTH",
"227 494 OFFCURVE",
"245 512 OFFCURVE",
"271 512 CURVE SMOOTH",
"297 512 OFFCURVE",
"315 494 OFFCURVE",
"315 467 CURVE SMOOTH",
"315 233 LINE SMOOTH",
"315 206 OFFCURVE",
"297 188 OFFCURVE",
"271 188 CURVE SMOOTH"
);
}
);
width = 550;
}
);
unicode = 0051;
},
{
color = 1;
glyphname = R;
lastChange = "2016-10-19 09:22:59 +0000";
layers = (
{
layerId = "262880E7-CFE1-4BDA-902E-E24798F3240A";
paths = (
{
closed = 1;
nodes = (
"130 0 LINE",
"130 679 LINE",
"257 679 LINE SMOOTH",
"357 679 OFFCURVE",
"418 616 OFFCURVE",
"418 512 CURVE SMOOTH",
"418 408 OFFCURVE",
"357 344 OFFCURVE",
"257 344 CURVE SMOOTH",
"125 344 LINE",
"125 323 LINE",
"257 323 LINE SMOOTH",
"370 323 OFFCURVE",
"440 395 OFFCURVE",
"440 511 CURVE SMOOTH",
"440 628 OFFCURVE",
"370 700 OFFCURVE",
"257 700 CURVE SMOOTH",
"108 700 LINE",
"108 0 LINE"
);
},
{
closed = 1;
nodes = (
"398 0 LINE",
"279 340 LINE",
"261 332 LINE",
"376 0 LINE"
);
}
);
width = 464;
},
{
layerId = "4F25946F-63AC-42D6-8D55-01CF6A99025B";
paths = (
{
closed = 1;
nodes = (
"229 0 LINE",
"229 502 LINE",
"267 502 LINE SMOOTH",
"296 502 OFFCURVE",
"316 482 OFFCURVE",
"316 452 CURVE SMOOTH",
"316 416 OFFCURVE",
"296 392 OFFCURVE",
"267 392 CURVE SMOOTH",
"213 392 LINE",
"213 220 LINE",
"261 220 LINE SMOOTH",
"418 220 OFFCURVE",
"522 313 OFFCURVE",
"522 452 CURVE SMOOTH",
"522 601 OFFCURVE",
"418 700 OFFCURVE",
"261 700 CURVE SMOOTH",
"21 700 LINE",
"21 0 LINE"
);
},
{
closed = 1;
nodes = (
"527 0 LINE",
"376 320 LINE",
"188 320 LINE",
"319 0 LINE"
);
}
);
width = 524;
},
{
associatedMasterId = "4F25946F-63AC-42D6-8D55-01CF6A99025B";
layerId = "26C7AC88-5DC9-479F-BCFD-6B889BDD4A0F";
name = "Medium{91,100}";
paths = (
{
closed = 1;
nodes = (
"168 0 LINE",
"168 612 LINE",
"265 612 LINE SMOOTH",
"338 612 OFFCURVE",
"383 565 OFFCURVE",
"383 489 CURVE SMOOTH",
"383 413 OFFCURVE",
"338 366 OFFCURVE",
"265 366 CURVE SMOOTH",
"158 366 LINE",
"158 280 LINE",
"263 280 LINE SMOOTH",
"393 280 OFFCURVE",
"476 364 OFFCURVE",
"476 495 CURVE SMOOTH",
"476 620 OFFCURVE",
"393 700 OFFCURVE",
"263 700 CURVE SMOOTH",
"75 700 LINE",
"75 0 LINE"
);
},
{
closed = 1;
nodes = (
"442 0 LINE",
"336 332 LINE",
"253 327 LINE",
"349 0 LINE"
);
}
);
width = 489;
}
);
unicode = 0052;
},
{
color = 1;
glyphname = S;
lastChange = "2016-10-19 09:22:59 +0000";
layers = (
{
layerId = "262880E7-CFE1-4BDA-902E-E24798F3240A";
paths = (
{
closed = 1;
nodes = (
"308 -9 OFFCURVE",
"370 50 OFFCURVE",
"370 149 CURVE SMOOTH",
"370 255 OFFCURVE",
"298 306 OFFCURVE",
"215 361 CURVE SMOOTH",
"132 416 OFFCURVE",
"70 459 OFFCURVE",
"70 552 CURVE SMOOTH",
"70 636 OFFCURVE",
"122 690 OFFCURVE",
"206 690 CURVE SMOOTH",
"290 690 OFFCURVE",
"342 637 OFFCURVE",
"342 550 CURVE SMOOTH",
"342 500 LINE",
"364 500 LINE",
"364 550 LINE SMOOTH",
"364 650 OFFCURVE",
"304 709 OFFCURVE",
"206 709 CURVE SMOOTH",
"108 709 OFFCURVE",
"48 649 OFFCURVE",
"48 553 CURVE SMOOTH",
"48 446 OFFCURVE",
"123 394 OFFCURVE",
"201 342 CURVE SMOOTH",
"278 291 OFFCURVE",
"348 244 OFFCURVE",
"348 148 CURVE SMOOTH",
"348 63 OFFCURVE",
"294 11 OFFCURVE",
"207 11 CURVE SMOOTH",
"120 11 OFFCURVE",
"70 64 OFFCURVE",
"70 150 CURVE SMOOTH",
"70 210 LINE",
"50 210 LINE",
"50 150 LINE SMOOTH",
"50 50 OFFCURVE",
"107 -9 OFFCURVE",
"208 -9 CURVE SMOOTH"
);
}
);
width = 418;
},
{
layerId = "4F25946F-63AC-42D6-8D55-01CF6A99025B";
paths = (
{
closed = 1;
nodes = (
"422 -10 OFFCURVE",
"516 74 OFFCURVE",
"516 200 CURVE SMOOTH",
"516 312 OFFCURVE",
"442 381 OFFCURVE",
"329 425 CURVE SMOOTH",
"283 443 OFFCURVE",
"230 456 OFFCURVE",
"230 489 CURVE SMOOTH",
"230 503 OFFCURVE",
"240 518 OFFCURVE",
"264 518 CURVE SMOOTH",
"290 518 OFFCURVE",
"305 501 OFFCURVE",
"305 479 CURVE SMOOTH",
"305 464 LINE",
"517 474 LINE",
"517 479 LINE SMOOTH",
"517 617 OFFCURVE",
"410 710 OFFCURVE",
"258 710 CURVE SMOOTH",
"111 710 OFFCURVE",
"15 624 OFFCURVE",
"15 498 CURVE SMOOTH",
"15 389 OFFCURVE",
"88 318 OFFCURVE",
"202 275 CURVE SMOOTH",
"244 259 OFFCURVE",
"300 245 OFFCURVE",
"300 214 CURVE SMOOTH",
"300 201 OFFCURVE",
"291 182 OFFCURVE",
"265 182 CURVE SMOOTH",
"241 182 OFFCURVE",
"226 199 OFFCURVE",
"226 231 CURVE SMOOTH",
"226 236 LINE",
"3 226 LINE",
"3 221 LINE SMOOTH",
"3 83 OFFCURVE",
"109 -10 OFFCURVE",
"269 -10 CURVE SMOOTH"
);
}
);
width = 520;
}
);
unicode = 0053;
},
{
color = 1;
glyphname = T;
lastChange = "2016-10-19 09:22:59 +0000";
layers = (
{
layerId = "262880E7-CFE1-4BDA-902E-E24798F3240A";
paths = (
{
closed = 1;
nodes = (
"192 0 LINE",
"192 689 LINE",
"170 689 LINE",
"170 0 LINE"
);
},
{
closed = 1;
nodes = (
"346 679 LINE",
"346 700 LINE",
"24 700 LINE",
"24 679 LINE"
);
}
);
width = 370;
},
{
layerId = "4F25946F-63AC-42D6-8D55-01CF6A99025B";
paths = (
{
closed = 1;
nodes = (
"361 0 LINE",
"361 606 LINE",
"153 606 LINE",
"153 0 LINE"
);
},
{
closed = 1;
nodes = (
"511 502 LINE",
"511 700 LINE",
"3 700 LINE",
"3 502 LINE"
);
}
);
width = 514;
}
);
unicode = 0054;
},
{
color = 1;
glyphname = U;
lastChange = "2016-10-19 09:22:59 +0000";
layers = (
{
layerId = "262880E7-CFE1-4BDA-902E-E24798F3240A";
paths = (
{
closed = 1;
nodes = (
"368 -9 OFFCURVE",
"430 50 OFFCURVE",
"430 150 CURVE SMOOTH",
"430 700 LINE",
"408 700 LINE",
"408 150 LINE SMOOTH",
"408 64 OFFCURVE",
"356 11 OFFCURVE",
"269 11 CURVE SMOOTH",
"182 11 OFFCURVE",
"130 64 OFFCURVE",
"130 150 CURVE SMOOTH",
"130 700 LINE",
"108 700 LINE",
"108 150 LINE SMOOTH",
"108 50 OFFCURVE",
"170 -9 OFFCURVE",
"269 -9 CURVE SMOOTH"
);
}
);
width = 538;
},
{
layerId = "4F25946F-63AC-42D6-8D55-01CF6A99025B";
paths = (
{
closed = 1;
nodes = (
"420 -6 OFFCURVE",
"521 92 OFFCURVE",
"521 234 CURVE SMOOTH",
"521 700 LINE",
"313 700 LINE",
"313 244 LINE SMOOTH",
"313 210 OFFCURVE",
"295 188 OFFCURVE",
"269 188 CURVE SMOOTH",
"243 188 OFFCURVE",
"225 210 OFFCURVE",
"225 244 CURVE SMOOTH",
"225 700 LINE",
"17 696 LINE",
"17 230 LINE SMOOTH",
"17 82 OFFCURVE",
"118 -14 OFFCURVE",
"269 -10 CURVE SMOOTH"
);
}
);
width = 537;
}
);
unicode = 0055;
},
{
color = 1;
glyphname = V;
lastChange = "2016-10-19 09:22:59 +0000";
layers = (
{
layerId = "262880E7-CFE1-4BDA-902E-E24798F3240A";
paths = (
{
closed = 1;
nodes = (
"199 0 LINE",
"364 700 LINE",
"342 700 LINE",
"188 40 LINE",
"34 700 LINE",
"12 700 LINE",
"177 0 LINE"
);
}
);
width = 376;
},
{
layerId = "4F25946F-63AC-42D6-8D55-01CF6A99025B";
paths = (
{
closed = 1;
nodes = (
"383 0 LINE",
"555 700 LINE",
"347 700 LINE",
"279 300 LINE",
"211 700 LINE",
"3 700 LINE",
"175 0 LINE"
);
}
);
width = 558;
}
);
unicode = 0056;
},
{
color = 1;
glyphname = W;
lastChange = "2016-10-19 09:22:59 +0000";
layers = (
{
layerId = "262880E7-CFE1-4BDA-902E-E24798F3240A";
paths = (
{
closed = 1;
nodes = (
"159 0 LINE",
"273 648 LINE",
"387 0 LINE",
"409 0 LINE",
"534 700 LINE",
"512 700 LINE",
"398 52 LINE",
"284 700 LINE",
"262 700 LINE",
"148 52 LINE",
"34 700 LINE",
"12 700 LINE",
"137 0 LINE"
);
}
);
width = 558;
},
{
layerId = "4F25946F-63AC-42D6-8D55-01CF6A99025B";
paths = (
{
closed = 1;
nodes = (
"374 1 LINE",
"410 307 LINE",
"446 1 LINE",
"676 1 LINE",
"830 700 LINE",
"614 700 LINE",
"561 363 LINE",
"512 699 LINE",
"320 699 LINE",
"271 363 LINE",
"218 700 LINE",
"6 700 LINE",
"162 1 LINE"
);
}
);
width = 836;
}
);
unicode = 0057;
},
{
color = 1;
glyphname = X;
lastChange = "2016-10-19 09:22:59 +0000";
layers = (
{
layerId = "262880E7-CFE1-4BDA-902E-E24798F3240A";
paths = (
{
closed = 1;
nodes = (
"322 700 LINE",
"178 374 LINE",
"34 700 LINE",
"12 700 LINE",
"167 350 LINE",
"12 0 LINE",
"34 0 LINE",
"178 325 LINE",
"322 0 LINE",
"344 0 LINE",
"190 350 LINE",
"344 700 LINE"
);
}
);
width = 356;
},
{
layerId = "4F25946F-63AC-42D6-8D55-01CF6A99025B";
paths = (
{
closed = 1;
nodes = (
"385 700 LINE",
"303 530 LINE",
"221 700 LINE",
"3 700 LINE",
"194 350 LINE",
"3 0 LINE",
"221 0 LINE",
"303 170 LINE",
"385 0 LINE",
"603 0 LINE",
"412 350 LINE",
"603 700 LINE"
);
}
);
width = 606;
},
{
associatedMasterId = "4F25946F-63AC-42D6-8D55-01CF6A99025B";
layerId = "A81EC77E-A514-41C1-A690-EF61EA7402F1";
name = "Bold Oct 15 16, 02:50";
paths = (
{
closed = 1;
nodes = (
"4 700 LINE",
"242 700 LINE",
"582 0 LINE",
"344 0 LINE"
);
},
{
closed = 1;
nodes = (
"344 700 LINE",
"582 700 LINE",
"242 0 LINE",
"4 0 LINE"
);
}
);
width = 586;
},
{
associatedMasterId = "262880E7-CFE1-4BDA-902E-E24798F3240A";
layerId = "F2B2385B-1C24-46F1-AB29-8D87B4EEE0C2";
name = "DEMIBOLD{119,100}";
paths = (
{
closed = 1;
nodes = (
"370 700 LINE",
"256 444 LINE",
"142 700 LINE",
"23 700 LINE",
"191 350 LINE",
"23 0 LINE",
"142 0 LINE",
"256 255 LINE",
"370 0 LINE",
"489 0 LINE",
"322 350 LINE",
"489 700 LINE"
);
}
);
width = 536;
},
{
associatedMasterId = "262880E7-CFE1-4BDA-902E-E24798F3240A";
layerId = "077702AC-624F-4016-8C7C-9CDBE6837B88";
name = "Light Oct 16 16, 21:49";
paths = (
{
closed = 1;
nodes = (
"441 700 LINE",
"298 376 LINE",
"155 700 LINE",
"132 700 LINE",
"287 350 LINE",
"132 0 LINE",
"155 0 LINE",
"298 324 LINE",
"441 0 LINE",
"464 0 LINE",
"310 350 LINE",
"464 700 LINE"
);
}
);
width = 596;
}
);
unicode = 0058;
},
{
color = 1;
glyphname = Y;
lastChange = "2016-10-19 09:22:59 +0000";
layers = (
{
layerId = "262880E7-CFE1-4BDA-902E-E24798F3240A";
paths = (
{
closed = 1;
nodes = (
"346 697 LINE",
"324 697 LINE",
"179 360 LINE",
"34 697 LINE",
"12 697 LINE",
"179 318 LINE"
);
},
{
closed = 1;
nodes = (
"190 0 LINE",
"190 350 LINE",
"168 350 LINE",
"168 0 LINE"
);
}
);
width = 358;
},
{
layerId = "4F25946F-63AC-42D6-8D55-01CF6A99025B";
paths = (
{
closed = 1;
nodes = (
"610 700 LINE",
"394 700 LINE",
"317 479 LINE",
"219 700 LINE",
"3 700 LINE",
"316 52 LINE"
);
},
{
closed = 1;
nodes = (
"420 0 LINE",
"420 350 LINE",
"212 350 LINE",
"212 0 LINE"
);
}
);
width = 613;
}
);
unicode = 0059;
},
{
color = 1;
glyphname = Z;
lastChange = "2016-10-19 09:22:59 +0000";
layers = (
{
layerId = "262880E7-CFE1-4BDA-902E-E24798F3240A";
paths = (
{
closed = 1;
nodes = (
"344 0 LINE",
"344 21 LINE",
"58 21 LINE",
"353 679 LINE",
"353 700 LINE",
"45 700 LINE",
"45 679 LINE",
"332 679 LINE",
"36 21 LINE",
"36 0 LINE"
);
}
);
width = 377;
},
{
layerId = "4F25946F-63AC-42D6-8D55-01CF6A99025B";
paths = (
{
closed = 1;
nodes = (
"483 0 LINE",
"483 198 LINE",
"225 198 LINE",
"483 502 LINE",
"483 700 LINE",
"3 700 LINE",
"3 502 LINE",
"261 502 LINE",
"4 198 LINE",
"4 0 LINE"
);
}
);
width = 486;
},
{
associatedMasterId = "4F25946F-63AC-42D6-8D55-01CF6A99025B";
layerId = "8571AD0C-8F04-4BAF-8376-8975FEBCF70C";
name = "Demibold{119,100}";
paths = (
{
closed = 1;
nodes = (
"433 0 LINE",
"433 111 LINE",
"137 111 LINE",
"439 589 LINE",
"439 700 LINE",
"27 700 LINE",
"27 589 LINE",
"324 589 LINE",
"22 111 LINE",
"22 0 LINE"
);
}
);
width = 464;
}
);
unicode = 005A;
},
{
color = 1;
glyphname = a;
lastChange = "2016-10-19 09:22:59 +0000";
layers = (
{
layerId = "262880E7-CFE1-4BDA-902E-E24798F3240A";
paths = (
{
closed = 1;
nodes = (
"333 -5 OFFCURVE",
"387 62 OFFCURVE",
"387 166 CURVE SMOOTH",
"387 334 LINE SMOOTH",
"387 436 OFFCURVE",
"333 505 OFFCURVE",
"229 505 CURVE SMOOTH",
"137 505 OFFCURVE",
"72 439 OFFCURVE",
"72 339 CURVE SMOOTH",
"72 160 LINE SMOOTH",
"72 61 OFFCURVE",
"136 -5 OFFCURVE",
"230 -5 CURVE SMOOTH"
);
},
{
closed = 1;
nodes = (
"149 16 OFFCURVE",
"94 72 OFFCURVE",
"94 156 CURVE SMOOTH",
"94 344 LINE SMOOTH",
"94 428 OFFCURVE",
"149 484 OFFCURVE",
"231 484 CURVE SMOOTH",
"313 484 OFFCURVE",
"368 428 OFFCURVE",
"368 344 CURVE SMOOTH",
"368 156 LINE SMOOTH",
"368 72 OFFCURVE",
"313 16 OFFCURVE",
"231 16 CURVE SMOOTH"
);
},
{
closed = 1;
nodes = (
"390 0 LINE",
"390 500 LINE",
"368 500 LINE",
"368 0 LINE"
);
}
);
width = 486;
},
{
layerId = "4F25946F-63AC-42D6-8D55-01CF6A99025B";
paths = (
{
closed = 1;
nodes = (
"299 -5 OFFCURVE",
"372 76 OFFCURVE",
"372 208 CURVE SMOOTH",
"372 298 LINE",
"365 426 OFFCURVE",
"292 505 OFFCURVE",
"181 505 CURVE SMOOTH",
"76 505 OFFCURVE",
"12 443 OFFCURVE",
"12 341 CURVE SMOOTH",
"12 157 LINE SMOOTH",
"12 57 OFFCURVE",
"76 -5 OFFCURVE",
"181 -5 CURVE SMOOTH"
);
},
{
closed = 1;
nodes = (
"238 163 OFFCURVE",
"220 181 OFFCURVE",
"220 208 CURVE SMOOTH",
"220 294 LINE SMOOTH",
"220 321 OFFCURVE",
"238 339 OFFCURVE",
"264 339 CURVE SMOOTH",
"290 339 OFFCURVE",
"307 321 OFFCURVE",
"307 294 CURVE SMOOTH",
"307 208 LINE SMOOTH",
"307 181 OFFCURVE",
"290 163 OFFCURVE",
"264 163 CURVE SMOOTH"
);
},
{
closed = 1;
nodes = (
"515 0 LINE",
"515 500 LINE",
"307 500 LINE",
"307 0 LINE"
);
}
);
width = 530;
},
{
associatedMasterId = "4F25946F-63AC-42D6-8D55-01CF6A99025B";
layerId = "47FC566B-2B97-4943-A9EB-638501BAD42D";
name = "DemiBold{119,100}";
paths = (
{
closed = 1;
nodes = (
"356 -3 OFFCURVE",
"417 66 OFFCURVE",
"417 244 CURVE SMOOTH",
"417 255 LINE SMOOTH",
"417 420 OFFCURVE",
"353 504 OFFCURVE",
"224 504 CURVE SMOOTH",
"116 504 OFFCURVE",
"42 445 OFFCURVE",
"42 348 CURVE SMOOTH",
"42 153 LINE SMOOTH",
"42 56 OFFCURVE",
"109 -3 OFFCURVE",
"228 -3 CURVE SMOOTH"
);
},
{
closed = 1;
nodes = (
"199 94 OFFCURVE",
"164 130 OFFCURVE",
"164 183 CURVE SMOOTH",
"164 318 LINE SMOOTH",
"164 371 OFFCURVE",
"199 407 OFFCURVE",
"252 407 CURVE SMOOTH",
"304 407 OFFCURVE",
"339 371 OFFCURVE",
"339 318 CURVE SMOOTH",
"339 183 LINE SMOOTH",
"339 130 OFFCURVE",
"304 94 OFFCURVE",
"252 94 CURVE SMOOTH"
);
},
{
closed = 1;
nodes = (
"460 0 LINE",
"460 500 LINE",
"339 500 LINE",
"339 0 LINE"
);
}
);
width = 516;
visible = 1;
}
);
unicode = 0061;
},
{
color = 1;
glyphname = b;
lastChange = "2016-10-19 09:22:59 +0000";
layers = (
{
layerId = "262880E7-CFE1-4BDA-902E-E24798F3240A";
paths = (
{
closed = 1;
nodes = (
"118 0 LINE",
"118 700 LINE",
"96 700 LINE",
"96 0 LINE"
);
},
{
closed = 1;
nodes = (
"350 -5 OFFCURVE",
"414 61 OFFCURVE",
"414 160 CURVE SMOOTH",
"414 339 LINE SMOOTH",
"414 439 OFFCURVE",
"349 505 OFFCURVE",
"257 505 CURVE SMOOTH",
"153 505 OFFCURVE",
"99 436 OFFCURVE",
"99 334 CURVE SMOOTH",
"99 166 LINE SMOOTH",
"99 62 OFFCURVE",
"153 -5 OFFCURVE",
"256 -5 CURVE SMOOTH"
);
},
{
closed = 1;
nodes = (
"173 16 OFFCURVE",
"118 72 OFFCURVE",
"118 156 CURVE SMOOTH",
"118 344 LINE SMOOTH",
"118 428 OFFCURVE",
"173 484 OFFCURVE",
"255 484 CURVE SMOOTH",
"337 484 OFFCURVE",
"392 428 OFFCURVE",
"392 344 CURVE SMOOTH",
"392 156 LINE SMOOTH",
"392 72 OFFCURVE",
"337 16 OFFCURVE",
"255 16 CURVE SMOOTH"
);
}
);
width = 486;
},
{
layerId = "4F25946F-63AC-42D6-8D55-01CF6A99025B";
paths = (
{
closed = 1;
nodes = (
"222 0 LINE",
"222 700 LINE",
"15 700 LINE",
"15 0 LINE"
);
},
{
closed = 1;
nodes = (
"453 -5 OFFCURVE",
"516 64 OFFCURVE",
"516 155 CURVE SMOOTH",
"516 353 LINE SMOOTH",
"516 444 OFFCURVE",
"467 505 OFFCURVE",
"346 505 CURVE SMOOTH",
"188 505 OFFCURVE",
"161 399 OFFCURVE",
"157 301 CURVE",
"157 198 LINE SMOOTH",
"157 111 OFFCURVE",
"200 -5 OFFCURVE",
"344 -5 CURVE SMOOTH"
);
},
{
closed = 1;
nodes = (
"239 163 OFFCURVE",
"222 181 OFFCURVE",
"222 208 CURVE SMOOTH",
"222 294 LINE SMOOTH",
"222 321 OFFCURVE",
"239 339 OFFCURVE",
"265 339 CURVE SMOOTH",
"291 339 OFFCURVE",
"309 321 OFFCURVE",
"309 294 CURVE SMOOTH",
"309 208 LINE SMOOTH",
"309 181 OFFCURVE",
"291 163 OFFCURVE",
"265 163 CURVE SMOOTH"
);
}
);
width = 528;
},
{
associatedMasterId = "4F25946F-63AC-42D6-8D55-01CF6A99025B";
layerId = "C1792C53-241E-48FB-AF0D-246C75EB8055";
name = "Demibold{119,100}";
paths = (
{
closed = 1;
nodes = (
"179 0 LINE",
"179 700 LINE",
"60 700 LINE",
"60 0 LINE"
);
},
{
closed = 1;
nodes = (
"409 -3 OFFCURVE",
"473 56 OFFCURVE",
"473 153 CURVE SMOOTH",
"473 348 LINE SMOOTH",
"473 444 OFFCURVE",
"407 504 OFFCURVE",
"300 504 CURVE SMOOTH",
"175 504 OFFCURVE",
"101 421 OFFCURVE",
"101 255 CURVE SMOOTH",
"101 244 LINE SMOOTH",
"101 66 OFFCURVE",
"162 -3 OFFCURVE",
"290 -3 CURVE SMOOTH"
);
},
{
closed = 1;
nodes = (
"214 94 OFFCURVE",
"179 130 OFFCURVE",
"179 183 CURVE SMOOTH",
"179 318 LINE SMOOTH",
"179 371 OFFCURVE",
"214 407 OFFCURVE",
"266 407 CURVE SMOOTH",
"319 407 OFFCURVE",
"354 371 OFFCURVE",
"354 318 CURVE",
"354 183 LINE SMOOTH",
"354 130 OFFCURVE",
"319 94 OFFCURVE",
"266 94 CURVE SMOOTH"
);
}
);
width = 518;
}
);
unicode = 0062;
},
{
color = 1;
glyphname = c;
lastChange = "2016-10-19 09:22:59 +0000";
layers = (
{
layerId = "262880E7-CFE1-4BDA-902E-E24798F3240A";
paths = (
{
closed = 1;
nodes = (
"332 -5 OFFCURVE",
"394 54 OFFCURVE",
"394 154 CURVE SMOOTH",
"394 157 LINE",
"372 157 LINE",
"372 154 LINE SMOOTH",
"372 68 OFFCURVE",
"320 15 OFFCURVE",
"233 15 CURVE SMOOTH",
"146 15 OFFCURVE",
"94 68 OFFCURVE",
"94 154 CURVE SMOOTH",
"94 346 LINE SMOOTH",
"94 433 OFFCURVE",
"148 486 OFFCURVE",
"233 486 CURVE SMOOTH",
"318 486 OFFCURVE",
"372 433 OFFCURVE",
"372 346 CURVE SMOOTH",
"372 344 LINE",
"394 344 LINE",
"394 346 LINE SMOOTH",
"394 446 OFFCURVE",
"332 505 OFFCURVE",
"233 505 CURVE SMOOTH",
"134 505 OFFCURVE",
"72 446 OFFCURVE",
"72 346 CURVE SMOOTH",
"72 154 LINE SMOOTH",
"72 54 OFFCURVE",
"134 -5 OFFCURVE",
"233 -5 CURVE SMOOTH"
);
}
);
width = 442;
},
{
layerId = "4F25946F-63AC-42D6-8D55-01CF6A99025B";
paths = (
{
closed = 1;
nodes = (
"411 -5 OFFCURVE",
"514 67 OFFCURVE",
"522 176 CURVE",
"522 228 LINE",
"311 228 LINE",
"311 197 LINE SMOOTH",
"311 171 OFFCURVE",
"293 154 OFFCURVE",
"267 154 CURVE SMOOTH",
"241 154 OFFCURVE",
"224 171 OFFCURVE",
"224 197 CURVE",
"224 307 LINE",
"224 333 OFFCURVE",
"241 350 OFFCURVE",
"267 350 CURVE SMOOTH",
"293 350 OFFCURVE",
"311 333 OFFCURVE",
"311 307 CURVE",
"311 274 LINE",
"522 274 LINE",
"522 337 LINE",
"520 438 OFFCURVE",
"418 505 OFFCURVE",
"266 505 CURVE SMOOTH",
"114 505 OFFCURVE",
"12 438 OFFCURVE",
"12 337 CURVE SMOOTH",
"12 176 LINE SMOOTH",
"12 67 OFFCURVE",
"112 -5 OFFCURVE",
"263 -5 CURVE SMOOTH"
);
}
);
width = 531;
},
{
associatedMasterId = "4F25946F-63AC-42D6-8D55-01CF6A99025B";
layerId = "7B6958F8-F0D4-40F0-82E9-17D44A566858";
name = "DemiBold{119,100}";
paths = (
{
closed = 1;
nodes = (
"380 -5 OFFCURVE",
"464 61 OFFCURVE",
"468 166 CURVE SMOOTH",
"468 195 LINE",
"345 195 LINE",
"345 194 LINE SMOOTH",
"345 140 OFFCURVE",
"311 105 OFFCURVE",
"257 105 CURVE SMOOTH",
"202 105 OFFCURVE",
"169 140 OFFCURVE",
"169 194 CURVE SMOOTH",
"169 307 LINE SMOOTH",
"169 361 OFFCURVE",
"203 397 OFFCURVE",
"257 397 CURVE SMOOTH",
"310 397 OFFCURVE",
"345 361 OFFCURVE",
"345 307 CURVE SMOOTH",
"345 306 LINE",
"468 306 LINE",
"468 341 LINE SMOOTH",
"467 442 OFFCURVE",
"383 505 OFFCURVE",
"256 505 CURVE SMOOTH",
"129 505 OFFCURVE",
"45 442 OFFCURVE",
"45 341 CURVE SMOOTH",
"45 166 LINE SMOOTH",
"45 61 OFFCURVE",
"128 -5 OFFCURVE",
"254 -5 CURVE SMOOTH"
);
}
);
width = 505;
}
);
unicode = 0063;
},
{
color = 1;
glyphname = e;
lastChange = "2016-10-19 09:22:59 +0000";
layers = (
{
layerId = "262880E7-CFE1-4BDA-902E-E24798F3240A";
paths = (
{
closed = 1;
nodes = (
"332 -5 OFFCURVE",
"394 55 OFFCURVE",
"394 155 CURVE SMOOTH",
"394 159 LINE",
"372 159 LINE",
"372 155 LINE SMOOTH",
"372 69 OFFCURVE",
"320 16 OFFCURVE",
"233 16 CURVE SMOOTH",
"146 16 OFFCURVE",
"94 69 OFFCURVE",
"94 155 CURVE SMOOTH",
"94 344 LINE SMOOTH",
"94 431 OFFCURVE",
"148 484 OFFCURVE",
"233 484 CURVE SMOOTH",
"318 484 OFFCURVE",
"372 431 OFFCURVE",
"372 344 CURVE SMOOTH",
"372 261 LINE",
"89 261 LINE",
"89 240 LINE",
"394 240 LINE",
"394 344 LINE SMOOTH",
"394 444 OFFCURVE",
"332 505 OFFCURVE",
"233 505 CURVE SMOOTH",
"134 505 OFFCURVE",
"72 444 OFFCURVE",
"72 344 CURVE SMOOTH",
"72 155 LINE SMOOTH",
"72 55 OFFCURVE",
"134 -5 OFFCURVE",
"233 -5 CURVE SMOOTH"
);
}
);
width = 454;
},
{
layerId = "4F25946F-63AC-42D6-8D55-01CF6A99025B";
paths = (
{
closed = 1;
nodes = (
"406 -7 OFFCURVE",
"508 66 OFFCURVE",
"515 172 CURVE",
"515 187 LINE",
"307 187 LINE",
"307 184 LINE SMOOTH",
"307 161 OFFCURVE",
"290 145 OFFCURVE",
"265 145 CURVE SMOOTH",
"238 145 OFFCURVE",
"220 161 OFFCURVE",
"220 184 CURVE SMOOTH",
"220 307 LINE SMOOTH",
"220 334 OFFCURVE",
"238 352 OFFCURVE",
"265 352 CURVE SMOOTH",
"290 352 OFFCURVE",
"307 334 OFFCURVE",
"307 307 CURVE SMOOTH",
"307 279 LINE",
"209 279 LINE",
"209 226 LINE",
"515 226 LINE",
"515 337 LINE",
"513 438 OFFCURVE",
"413 507 OFFCURVE",
"264 507 CURVE SMOOTH",
"113 507 OFFCURVE",
"12 438 OFFCURVE",
"12 337 CURVE SMOOTH",
"12 172 LINE SMOOTH",
"12 66 OFFCURVE",
"111 -7 OFFCURVE",
"260 -7 CURVE SMOOTH"
);
}
);
width = 527;
},
{
associatedMasterId = "4F25946F-63AC-42D6-8D55-01CF6A99025B";
layerId = "A8631AE8-6F64-4109-B373-5711B024CF55";
name = "DemiBold {119,100}";
paths = (
{
closed = 1;
nodes = (
"380 -5 OFFCURVE",
"464 60 OFFCURVE",
"464 158 CURVE SMOOTH",
"464 170 LINE",
"342 170 LINE",
"342 169 LINE",
"342 127 OFFCURVE",
"308 99 OFFCURVE",
"256 99 CURVE SMOOTH",
"203 99 OFFCURVE",
"167 133 OFFCURVE",
"167 185 CURVE SMOOTH",
"167 325 LINE SMOOTH",
"167 368 OFFCURVE",
"203 396 OFFCURVE",
"256 396 CURVE SMOOTH",
"308 396 OFFCURVE",
"342 368 OFFCURVE",
"342 325 CURVE SMOOTH",
"342 287 LINE",
"159 287 LINE",
"159 211 LINE",
"464 211 LINE",
"464 340 LINE SMOOTH",
"464 439 OFFCURVE",
"380 505 OFFCURVE",
"255 505 CURVE SMOOTH",
"129 505 OFFCURVE",
"45 439 OFFCURVE",
"45 340 CURVE SMOOTH",
"45 164 LINE SMOOTH",
"45 63 OFFCURVE",
"128 -5 OFFCURVE",
"253 -5 CURVE SMOOTH"
);
}
);
width = 507;
visible = 1;
}
);
unicode = 0065;
},
{
color = 1;
glyphname = f;
lastChange = "2016-10-19 09:23:11 +0000";
layers = (
{
layerId = "262880E7-CFE1-4BDA-902E-E24798F3240A";
paths = (
{
closed = 1;
nodes = (
"154 0 LINE",
"154 550 LINE SMOOTH",
"154 637 OFFCURVE",
"207 689 OFFCURVE",
"293 689 CURVE",
"293 710 LINE",
"193 710 OFFCURVE",
"132 650 OFFCURVE",
"132 550 CURVE SMOOTH",
"132 0 LINE"
);
},
{
closed = 1;
nodes = (
"263 479 LINE",
"263 500 LINE",
"63 500 LINE",
"63 479 LINE"
);
}
);
width = 275;
},
{
layerId = "4F25946F-63AC-42D6-8D55-01CF6A99025B";
paths = (
{
closed = 1;
nodes = (
"231 8 LINE",
"231 525 LINE",
"231 545 OFFCURVE",
"253 551 OFFCURVE",
"275 551 CURVE",
"275 693 LINE",
"135 700 OFFCURVE",
"46 690 OFFCURVE",
"46 549 CURVE",
"46 8 LINE"
);
},
{
closed = 1;
nodes = (
"293 326 LINE",
"293 500 LINE",
"0 500 LINE",
"0 326 LINE"
);
}
);
width = 296;
}
);
unicode = 0066;
},
{
color = 1;
glyphname = g;
lastChange = "2016-10-19 09:22:59 +0000";
layers = (
{
layerId = "262880E7-CFE1-4BDA-902E-E24798F3240A";
paths = (
{
closed = 1;
nodes = (
"317 -206 OFFCURVE",
"390 -140 OFFCURVE",
"390 0 CURVE SMOOTH",
"390 500 LINE",
"368 500 LINE",
"368 0 LINE SMOOTH",
"368 -126 OFFCURVE",
"302 -185 OFFCURVE",
"183 -181 CURVE",
"183 -202 LINE"
);
},
{
closed = 1;
nodes = (
"333 -5 OFFCURVE",
"387 62 OFFCURVE",
"387 166 CURVE SMOOTH",
"387 334 LINE SMOOTH",
"387 436 OFFCURVE",
"333 505 OFFCURVE",
"229 505 CURVE SMOOTH",
"137 505 OFFCURVE",
"72 439 OFFCURVE",
"72 339 CURVE SMOOTH",
"72 160 LINE SMOOTH",
"72 61 OFFCURVE",
"136 -5 OFFCURVE",
"230 -5 CURVE SMOOTH"
);
},
{
closed = 1;
nodes = (
"149 16 OFFCURVE",
"94 72 OFFCURVE",
"94 156 CURVE SMOOTH",
"94 344 LINE SMOOTH",
"94 428 OFFCURVE",
"149 484 OFFCURVE",
"231 484 CURVE SMOOTH",
"313 484 OFFCURVE",
"368 428 OFFCURVE",
"368 344 CURVE SMOOTH",
"368 156 LINE SMOOTH",
"368 72 OFFCURVE",
"313 16 OFFCURVE",
"231 16 CURVE SMOOTH"
);
}
);
width = 486;
},
{
layerId = "4F25946F-63AC-42D6-8D55-01CF6A99025B";
paths = (
{
closed = 1;
nodes = (
"444 -226 OFFCURVE",
"511 -115 OFFCURVE",
"511 34 CURVE SMOOTH",
"511 500 LINE",
"299 500 LINE",
"299 34 LINE SMOOTH",
"299 -14 OFFCURVE",
"282 -44 OFFCURVE",
"138 -36 CURVE",
"138 -207 LINE"
);
},
{
closed = 1;
nodes = (
"329 -5 OFFCURVE",
"371 109 OFFCURVE",
"371 208 CURVE SMOOTH",
"371 298 LINE",
"367 394 OFFCURVE",
"325 505 OFFCURVE",
"179 505 CURVE SMOOTH",
"64 505 OFFCURVE",
"12 437 OFFCURVE",
"12 346 CURVE SMOOTH",
"12 152 LINE SMOOTH",
"12 61 OFFCURVE",
"68 -5 OFFCURVE",
"181 -5 CURVE SMOOTH"
);
},
{
closed = 1;
nodes = (
"229 165 OFFCURVE",
"212 181 OFFCURVE",
"212 206 CURVE SMOOTH",
"212 298 LINE SMOOTH",
"212 323 OFFCURVE",
"229 339 OFFCURVE",
"255 339 CURVE SMOOTH",
"281 339 OFFCURVE",
"299 323 OFFCURVE",
"299 298 CURVE SMOOTH",
"299 206 LINE SMOOTH",
"299 181 OFFCURVE",
"281 165 OFFCURVE",
"255 165 CURVE SMOOTH"
);
}
);
width = 526;
}
);
unicode = 0067;
},
{
color = 1;
glyphname = h;
lastChange = "2016-10-19 09:22:59 +0000";
layers = (
{
layerId = "262880E7-CFE1-4BDA-902E-E24798F3240A";
paths = (
{
closed = 1;
nodes = (
"418 0 LINE",
"418 346 LINE SMOOTH",
"418 444 OFFCURVE",
"357 504 OFFCURVE",
"261 504 CURVE SMOOTH",
"163 504 OFFCURVE",
"102 446 OFFCURVE",
"102 343 CURVE",
"118 343 LINE",
"118 430 OFFCURVE",
"173 483 OFFCURVE",
"261 483 CURVE SMOOTH",
"344 483 OFFCURVE",
"396 431 OFFCURVE",
"396 345 CURVE SMOOTH",
"396 0 LINE"
);
},
{
closed = 1;
nodes = (
"118 0 LINE",
"118 700 LINE",
"96 700 LINE",
"96 0 LINE"
);
}
);
width = 514;
},
{
layerId = "4F25946F-63AC-42D6-8D55-01CF6A99025B";
paths = (
{
closed = 1;
nodes = (
"517 0 LINE",
"517 350 LINE SMOOTH",
"517 441 OFFCURVE",
"472 505 OFFCURVE",
"355 505 CURVE",
"205 505 OFFCURVE",
"157 395 OFFCURVE",
"157 294 CURVE",
"223 294 LINE",
"223 321 OFFCURVE",
"240 339 OFFCURVE",
"266 339 CURVE SMOOTH",
"292 339 OFFCURVE",
"310 321 OFFCURVE",
"310 294 CURVE SMOOTH",
"310 0 LINE"
);
},
{
closed = 1;
nodes = (
"223 0 LINE",
"223 700 LINE",
"15 700 LINE",
"15 0 LINE"
);
}
);
width = 532;
},
{
associatedMasterId = "4F25946F-63AC-42D6-8D55-01CF6A99025B";
layerId = "6DA8EE20-322F-490D-912C-EA80E03ECB77";
name = "Medium {91, 100}";
paths = (
{
closed = 1;
nodes = (
"452 0 LINE",
"452 341 LINE SMOOTH",
"452 440 OFFCURVE",
"398 504 OFFCURVE",
"284 504 CURVE SMOOTH",
"171 504 OFFCURVE",
"120 441 OFFCURVE",
"120 324 CURVE",
"155 324 LINE",
"155 389 OFFCURVE",
"196 428 OFFCURVE",
"260 428 CURVE SMOOTH",
"323 428 OFFCURVE",
"360 389 OFFCURVE",
"360 326 CURVE SMOOTH",
"360 0 LINE"
);
},
{
closed = 1;
nodes = (
"155 0 LINE",
"155 700 LINE",
"62 700 LINE",
"62 0 LINE"
);
}
);
width = 508;
}
);
unicode = 0068;
},
{
color = 1;
glyphname = i;
lastChange = "2016-10-19 09:22:59 +0000";
layers = (
{
layerId = "262880E7-CFE1-4BDA-902E-E24798F3240A";
paths = (
{
closed = 1;
nodes = (
"118 0 LINE",
"118 500 LINE",
"96 500 LINE",
"96 0 LINE"
);
},
{
closed = 1;
nodes = (
"124 669 OFFCURVE",
"138 683 OFFCURVE",
"138 700 CURVE SMOOTH",
"138 716 OFFCURVE",
"124 730 OFFCURVE",
"107 730 CURVE SMOOTH",
"90 730 OFFCURVE",
"76 716 OFFCURVE",
"76 700 CURVE SMOOTH",
"76 683 OFFCURVE",
"90 669 OFFCURVE",
"107 669 CURVE SMOOTH"
);
}
);
width = 226;
},
{
layerId = "4F25946F-63AC-42D6-8D55-01CF6A99025B";
paths = (
{
closed = 1;
nodes = (
"223 0 LINE",
"223 500 LINE",
"15 500 LINE",
"15 0 LINE"
);
},
{
closed = 1;
nodes = (
"180 547 OFFCURVE",
"233 591 OFFCURVE",
"233 656 CURVE",
"233 715 OFFCURVE",
"180 763 OFFCURVE",
"119 763 CURVE SMOOTH",
"58 763 OFFCURVE",
"5 715 OFFCURVE",
"5 656 CURVE SMOOTH",
"5 595 OFFCURVE",
"56 547 OFFCURVE",
"119 547 CURVE SMOOTH"
);
}
);
width = 238;
}
);
unicode = 0069;
},
{
color = 1;
glyphname = j;
lastChange = "2016-10-19 09:22:59 +0000";
layers = (
{
layerId = "262880E7-CFE1-4BDA-902E-E24798F3240A";
paths = (
{
closed = 1;
nodes = (
"66 -211 OFFCURVE",
"118 -159 OFFCURVE",
"118 -74 CURVE SMOOTH",
"118 500 LINE",
"96 500 LINE",
"96 -74 LINE SMOOTH",
"96 -146 OFFCURVE",
"53 -190 OFFCURVE",
"-18 -190 CURVE",
"-18 -211 LINE"
);
},
{
closed = 1;
nodes = (
"126 669 OFFCURVE",
"138 681 OFFCURVE",
"138 700 CURVE SMOOTH",
"138 719 OFFCURVE",
"126 730 OFFCURVE",
"107 730 CURVE SMOOTH",
"88 730 OFFCURVE",
"76 719 OFFCURVE",
"76 700 CURVE SMOOTH",
"76 681 OFFCURVE",
"88 669 OFFCURVE",
"107 669 CURVE SMOOTH"
);
}
);
width = 214;
},
{
layerId = "4F25946F-63AC-42D6-8D55-01CF6A99025B";
paths = (
{
closed = 1;
nodes = (
"111 -236 OFFCURVE",
"224 -200 OFFCURVE",
"223 -39 CURVE",
"223 500 LINE",
"15 500 LINE",
"15 -8 LINE",
"15 -40 OFFCURVE",
"-39 -39 OFFCURVE",
"-72 -26 CURVE",
"-82 -201 LINE"
);
},
{
closed = 1;
nodes = (
"181 547 OFFCURVE",
"233 595 OFFCURVE",
"233 656 CURVE",
"233 715 OFFCURVE",
"181 763 OFFCURVE",
"119 763 CURVE SMOOTH",
"58 763 OFFCURVE",
"5 715 OFFCURVE",
"5 656 CURVE SMOOTH",
"5 595 OFFCURVE",
"56 547 OFFCURVE",
"119 547 CURVE SMOOTH"
);
}
);
width = 235;
}
);
unicode = 006A;
},
{
color = 1;
glyphname = k;
lastChange = "2016-10-19 09:22:59 +0000";
layers = (
{
guideLines = (
{
angle = 180;
position = "{283, 0}";
showMeasurement = 1;
}
);
layerId = "262880E7-CFE1-4BDA-902E-E24798F3240A";
paths = (
{
closed = 1;
nodes = (
"379 0 LINE",
"124 250 LINE",
"379 500 LINE",
"357 500 LINE",
"103 250 LINE",
"357 0 LINE"
);
},
{
closed = 1;
nodes = (
"118 0 LINE",
"118 700 LINE",
"96 700 LINE",
"96 0 LINE"
);
}
);
width = 367;
},
{
layerId = "4F25946F-63AC-42D6-8D55-01CF6A99025B";
paths = (
{
closed = 1;
nodes = (
"500 0 LINE",
"348 250 LINE",
"500 500 LINE",
"284 500 LINE",
"150 256 LINE",
"284 0 LINE"
);
},
{
closed = 1;
nodes = (
"203 0 LINE",
"204 700 LINE",
"16 700 LINE",
"15 0 LINE"
);
}
);
width = 497;
},
{
associatedMasterId = "4F25946F-63AC-42D6-8D55-01CF6A99025B";
layerId = "67D1648E-BAA1-4D62-B90C-A94E0FCB7E5A";
name = "DemiBold{119,100}";
paths = (
{
closed = 1;
nodes = (
"471 0 LINE",
"269 250 LINE",
"486 500 LINE",
"336 500 LINE",
"128 250 LINE",
"320 0 LINE"
);
},
{
closed = 1;
nodes = (
"176 0 LINE",
"177 700 LINE",
"56 700 LINE",
"55 0 LINE"
);
}
);
width = 478;
}
);
unicode = 006B;
},
{
color = 1;
glyphname = l;
lastChange = "2016-10-19 09:22:59 +0000";
layers = (
{
layerId = "262880E7-CFE1-4BDA-902E-E24798F3240A";
paths = (
{
closed = 1;
nodes = (
"118 0 LINE",
"118 700 LINE",
"96 700 LINE",
"96 0 LINE"
);
}
);
width = 226;
},
{
layerId = "4F25946F-63AC-42D6-8D55-01CF6A99025B";
paths = (
{
closed = 1;
nodes = (
"223 0 LINE",
"223 700 LINE",
"15 700 LINE",
"15 0 LINE"
);
}
);
width = 238;
}
);
unicode = 006C;
},
{
color = 1;
glyphname = m;
lastChange = "2016-10-19 09:22:59 +0000";
layers = (
{
layerId = "262880E7-CFE1-4BDA-902E-E24798F3240A";
paths = (
{
closed = 1;
nodes = (
"118 0 LINE",
"118 500 LINE",
"96 500 LINE",
"96 0 LINE"
);
},
{
closed = 1;
nodes = (
"408 0 LINE",
"408 345 LINE",
"408 445 OFFCURVE",
"347 506 OFFCURVE",
"253 506 CURVE SMOOTH",
"158 506 OFFCURVE",
"103 445 OFFCURVE",
"103 345 CURVE",
"118 345 LINE",
"118 432 OFFCURVE",
"169 485 OFFCURVE",
"252 485 CURVE SMOOTH",
"335 485 OFFCURVE",
"386 432 OFFCURVE",
"386 345 CURVE",
"386 0 LINE"
);
},
{
closed = 1;
nodes = (
"698 0 LINE",
"698 345 LINE SMOOTH",
"698 445 OFFCURVE",
"637 506 OFFCURVE",
"543 506 CURVE SMOOTH",
"448 506 OFFCURVE",
"393 445 OFFCURVE",
"393 345 CURVE",
"408 345 LINE",
"408 432 OFFCURVE",
"459 485 OFFCURVE",
"542 485 CURVE SMOOTH",
"625 485 OFFCURVE",
"676 432 OFFCURVE",
"676 345 CURVE SMOOTH",
"676 0 LINE"
);
}
);
width = 806;
},
{
layerId = "4F25946F-63AC-42D6-8D55-01CF6A99025B";
paths = (
{
closed = 1;
nodes = (
"223 0 LINE",
"223 500 LINE",
"15 500 LINE",
"15 0 LINE"
);
},
{
closed = 1;
nodes = (
"517 0 LINE",
"517 350 LINE SMOOTH",
"517 441 OFFCURVE",
"472 505 OFFCURVE",
"355 505 CURVE",
"205 505 OFFCURVE",
"157 395 OFFCURVE",
"157 294 CURVE",
"223 294 LINE",
"223 321 OFFCURVE",
"240 339 OFFCURVE",
"266 339 CURVE SMOOTH",
"292 339 OFFCURVE",
"310 321 OFFCURVE",
"310 294 CURVE SMOOTH",
"310 0 LINE"
);
},
{
closed = 1;
nodes = (
"811 0 LINE",
"811 350 LINE SMOOTH",
"811 441 OFFCURVE",
"766 505 OFFCURVE",
"649 505 CURVE",
"499 505 OFFCURVE",
"451 395 OFFCURVE",
"451 294 CURVE",
"517 294 LINE",
"517 321 OFFCURVE",
"534 339 OFFCURVE",
"560 339 CURVE SMOOTH",
"586 339 OFFCURVE",
"604 321 OFFCURVE",
"604 294 CURVE SMOOTH",
"604 0 LINE"
);
}
);
width = 826;
},
{
associatedMasterId = "4F25946F-63AC-42D6-8D55-01CF6A99025B";
layerId = "F5ED04A7-6D5C-4CB3-8E75-4B337E8B4478";
name = "Medium {91, 100}";
paths = (
{
closed = 1;
nodes = (
"154 0 LINE",
"154 500 LINE",
"62 500 LINE",
"62 0 LINE"
);
},
{
closed = 1;
nodes = (
"438 0 LINE",
"438 350 LINE SMOOTH",
"438 447 OFFCURVE",
"387 510 OFFCURVE",
"283 510 CURVE SMOOTH",
"174 510 OFFCURVE",
"116 440 OFFCURVE",
"116 336 CURVE",
"154 336 LINE",
"154 396 OFFCURVE",
"191 433 OFFCURVE",
"250 433 CURVE SMOOTH",
"309 433 OFFCURVE",
"346 396 OFFCURVE",
"346 336 CURVE SMOOTH",
"346 0 LINE"
);
},
{
closed = 1;
nodes = (
"722 0 LINE",
"722 350 LINE SMOOTH",
"722 447 OFFCURVE",
"671 510 OFFCURVE",
"567 510 CURVE SMOOTH",
"458 510 OFFCURVE",
"389 440 OFFCURVE",
"389 336 CURVE",
"438 336 LINE",
"438 396 OFFCURVE",
"475 433 OFFCURVE",
"534 433 CURVE SMOOTH",
"593 433 OFFCURVE",
"630 396 OFFCURVE",
"630 336 CURVE SMOOTH",
"630 0 LINE"
);
}
);
width = 793;
}
);
unicode = 006D;
},
{
color = 1;
glyphname = n;
lastChange = "2016-10-19 09:22:59 +0000";
layers = (
{
layerId = "262880E7-CFE1-4BDA-902E-E24798F3240A";
paths = (
{
closed = 1;
nodes = (
"418 0 LINE",
"418 335 LINE SMOOTH",
"418 440 OFFCURVE",
"360 504 OFFCURVE",
"265 504 CURVE SMOOTH",
"164 504 OFFCURVE",
"102 443 OFFCURVE",
"102 343 CURVE",
"118 343 LINE",
"118 430 OFFCURVE",
"173 483 OFFCURVE",
"263 483 CURVE SMOOTH",
"345 483 OFFCURVE",
"396 431 OFFCURVE",
"396 346 CURVE SMOOTH",
"396 0 LINE"
);
},
{
closed = 1;
nodes = (
"118 0 LINE",
"118 496 LINE",
"96 496 LINE",
"96 0 LINE"
);
}
);
width = 514;
},
{
layerId = "4F25946F-63AC-42D6-8D55-01CF6A99025B";
paths = (
{
closed = 1;
nodes = (
"517 0 LINE",
"517 350 LINE SMOOTH",
"517 441 OFFCURVE",
"472 505 OFFCURVE",
"355 505 CURVE",
"205 505 OFFCURVE",
"157 395 OFFCURVE",
"157 294 CURVE",
"223 294 LINE",
"223 321 OFFCURVE",
"240 339 OFFCURVE",
"266 339 CURVE SMOOTH",
"292 339 OFFCURVE",
"310 321 OFFCURVE",
"310 294 CURVE SMOOTH",
"310 0 LINE"
);
},
{
closed = 1;
nodes = (
"223 0 LINE",
"223 500 LINE",
"15 500 LINE",
"15 0 LINE"
);
}
);
width = 532;
},
{
associatedMasterId = "4F25946F-63AC-42D6-8D55-01CF6A99025B";
guideLines = (
{
angle = 60;
position = "{243, 250}";
showMeasurement = 1;
}
);
layerId = "48EED9EC-BBC9-457D-A249-2E4341C899C3";
name = "Medium {91, 100}";
paths = (
{
closed = 1;
nodes = (
"461 0 LINE",
"461 341 LINE SMOOTH",
"461 440 OFFCURVE",
"407 504 OFFCURVE",
"293 504 CURVE SMOOTH",
"180 504 OFFCURVE",
"129 441 OFFCURVE",
"129 324 CURVE",
"164 324 LINE",
"164 389 OFFCURVE",
"205 428 OFFCURVE",
"269 428 CURVE SMOOTH",
"332 428 OFFCURVE",
"369 389 OFFCURVE",
"369 326 CURVE SMOOTH",
"369 0 LINE"
);
},
{
closed = 1;
nodes = (
"164 0 LINE",
"164 498 LINE",
"71 498 LINE",
"71 0 LINE"
);
}
);
width = 526;
}
);
unicode = 006E;
},
{
color = 1;
glyphname = o;
lastChange = "2016-10-19 09:30:19 +0000";
layers = (
{
guideLines = (
{
angle = 180;
position = "{233, 250}";
showMeasurement = 1;
},
{
angle = 120;
position = "{233, 250}";
showMeasurement = 1;
},
{
angle = 60;
position = "{233, 250}";
showMeasurement = 1;
}
);
layerId = "262880E7-CFE1-4BDA-902E-E24798F3240A";
paths = (
{
closed = 1;
nodes = (
"330 -5 OFFCURVE",
"394 64 OFFCURVE",
"394 163 CURVE SMOOTH",
"394 337 LINE SMOOTH",
"394 436 OFFCURVE",
"330 505 OFFCURVE",
"233 505 CURVE SMOOTH",
"136 505 OFFCURVE",
"72 436 OFFCURVE",
"72 337 CURVE SMOOTH",
"72 163 LINE SMOOTH",
"72 64 OFFCURVE",
"136 -5 OFFCURVE",
"233 -5 CURVE SMOOTH"
);
},
{
closed = 1;
nodes = (
"150 16 OFFCURVE",
"94 72 OFFCURVE",
"94 156 CURVE SMOOTH",
"94 344 LINE SMOOTH",
"94 428 OFFCURVE",
"150 484 OFFCURVE",
"233 484 CURVE SMOOTH",
"316 484 OFFCURVE",
"372 428 OFFCURVE",
"372 344 CURVE SMOOTH",
"372 156 LINE SMOOTH",
"372 72 OFFCURVE",
"316 16 OFFCURVE",
"233 16 CURVE SMOOTH"
);
}
);
width = 466;
},
{
layerId = "4F25946F-63AC-42D6-8D55-01CF6A99025B";
paths = (
{
closed = 1;
nodes = (
"410 -6 OFFCURVE",
"516 69 OFFCURVE",
"524 181 CURVE",
"524 330 LINE",
"522 434 OFFCURVE",
"418 504 OFFCURVE",
"263 504 CURVE SMOOTH",
"112 504 OFFCURVE",
"12 434 OFFCURVE",
"12 330 CURVE SMOOTH",
"12 181 LINE SMOOTH",
"12 69 OFFCURVE",
"111 -6 OFFCURVE",
"260 -6 CURVE SMOOTH"
);
},
{
closed = 1;
nodes = (
"238 151 OFFCURVE",
"221 167 OFFCURVE",
"221 192 CURVE SMOOTH",
"221 306 LINE SMOOTH",
"221 331 OFFCURVE",
"238 347 OFFCURVE",
"264 347 CURVE SMOOTH",
"290 347 OFFCURVE",
"308 331 OFFCURVE",
"308 306 CURVE SMOOTH",
"308 192 LINE SMOOTH",
"308 167 OFFCURVE",
"290 151 OFFCURVE",
"264 151 CURVE SMOOTH"
);
}
);
width = 536;
}
);
unicode = 006F;
},
{
color = 1;
glyphname = p;
lastChange = "2016-10-19 09:22:59 +0000";
layers = (
{
layerId = "262880E7-CFE1-4BDA-902E-E24798F3240A";
paths = (
{
closed = 1;
nodes = (
"350 -5 OFFCURVE",
"414 61 OFFCURVE",
"414 160 CURVE SMOOTH",
"414 339 LINE SMOOTH",
"414 439 OFFCURVE",
"349 505 OFFCURVE",
"257 505 CURVE SMOOTH",
"153 505 OFFCURVE",
"99 436 OFFCURVE",
"99 334 CURVE SMOOTH",
"99 166 LINE SMOOTH",
"99 62 OFFCURVE",
"153 -5 OFFCURVE",
"256 -5 CURVE SMOOTH"
);
},
{
closed = 1;
nodes = (
"118 -200 LINE",
"118 500 LINE",
"96 500 LINE",
"96 -200 LINE"
);
},
{
closed = 1;
nodes = (
"173 16 OFFCURVE",
"118 72 OFFCURVE",
"118 156 CURVE SMOOTH",
"118 344 LINE SMOOTH",
"118 428 OFFCURVE",
"173 484 OFFCURVE",
"255 484 CURVE SMOOTH",
"337 484 OFFCURVE",
"392 428 OFFCURVE",
"392 344 CURVE SMOOTH",
"392 156 LINE SMOOTH",
"392 72 OFFCURVE",
"337 16 OFFCURVE",
"255 16 CURVE SMOOTH"
);
}
);
width = 486;
},
{
layerId = "4F25946F-63AC-42D6-8D55-01CF6A99025B";
paths = (
{
closed = 1;
nodes = (
"453 -5 OFFCURVE",
"516 64 OFFCURVE",
"516 155 CURVE SMOOTH",
"516 353 LINE SMOOTH",
"516 444 OFFCURVE",
"467 505 OFFCURVE",
"346 505 CURVE SMOOTH",
"188 505 OFFCURVE",
"162 399 OFFCURVE",
"157 301 CURVE",
"157 198 LINE SMOOTH",
"157 111 OFFCURVE",
"200 -5 OFFCURVE",
"344 -5 CURVE SMOOTH"
);
},
{
closed = 1;
nodes = (
"222 -200 LINE",
"222 500 LINE",
"15 500 LINE",
"15 -200 LINE"
);
},
{
closed = 1;
nodes = (
"239 161 OFFCURVE",
"222 179 OFFCURVE",
"222 206 CURVE SMOOTH",
"222 292 LINE SMOOTH",
"222 319 OFFCURVE",
"239 337 OFFCURVE",
"265 337 CURVE SMOOTH",
"291 337 OFFCURVE",
"309 319 OFFCURVE",
"309 292 CURVE SMOOTH",
"309 206 LINE SMOOTH",
"309 179 OFFCURVE",
"291 161 OFFCURVE",
"265 161 CURVE SMOOTH"
);
}
);
width = 528;
}
);
unicode = 0070;
},
{
color = 1;
glyphname = r;
lastChange = "2016-10-19 09:31:02 +0000";
layers = (
{
layerId = "262880E7-CFE1-4BDA-902E-E24798F3240A";
paths = (
{
closed = 1;
nodes = (
"118 331 LINE",
"118 418 OFFCURVE",
"168 483 OFFCURVE",
"250 483 CURVE SMOOTH",
"260 483 OFFCURVE",
"277 479 OFFCURVE",
"286 475 CURVE",
"303 488 LINE",
"289 496 OFFCURVE",
"269 502 OFFCURVE",
"250 502 CURVE SMOOTH",
"155 502 OFFCURVE",
"102 429 OFFCURVE",
"102 331 CURVE"
);
},
{
closed = 1;
nodes = (
"118 0 LINE",
"118 500 LINE",
"96 500 LINE",
"96 0 LINE"
);
}
);
width = 315;
},
{
layerId = "4F25946F-63AC-42D6-8D55-01CF6A99025B";
paths = (
{
closed = 1;
nodes = (
"223 248 LINE",
"223 282 OFFCURVE",
"263 301 OFFCURVE",
"295 301 CURVE SMOOTH",
"318 301 OFFCURVE",
"352 290 OFFCURVE",
"357 281 CURVE",
"399 464 LINE",
"396 483 OFFCURVE",
"356 499 OFFCURVE",
"314 499 CURVE SMOOTH",
"191 499 OFFCURVE",
"159 364 OFFCURVE",
"159 248 CURVE"
);
},
{
closed = 1;
nodes = (
"223 0 LINE",
"223 500 LINE",
"15 500 LINE",
"15 0 LINE"
);
}
);
width = 381;
}
);
unicode = 0072;
},
{
color = 1;
glyphname = s;
lastChange = "2016-10-19 09:22:59 +0000";
layers = (
{
layerId = "262880E7-CFE1-4BDA-902E-E24798F3240A";
paths = (
{
closed = 1;
nodes = (
"308 -4 OFFCURVE",
"374 49 OFFCURVE",
"374 126 CURVE SMOOTH",
"374 214 OFFCURVE",
"290 236 OFFCURVE",
"210 264 CURVE SMOOTH",
"121 295 OFFCURVE",
"72 311 OFFCURVE",
"72 378 CURVE SMOOTH",
"72 442 OFFCURVE",
"128 483 OFFCURVE",
"211 483 CURVE SMOOTH",
"294 483 OFFCURVE",
"350 438 OFFCURVE",
"350 369 CURVE SMOOTH",
"350 368 LINE",
"372 368 LINE",
"372 369 LINE SMOOTH",
"372 449 OFFCURVE",
"308 504 OFFCURVE",
"211 504 CURVE SMOOTH",
"114 504 OFFCURVE",
"50 453 OFFCURVE",
"50 378 CURVE SMOOTH",
"50 290 OFFCURVE",
"121 272 OFFCURVE",
"206 242 CURVE SMOOTH",
"282 215 OFFCURVE",
"352 196 OFFCURVE",
"352 126 CURVE SMOOTH",
"352 61 OFFCURVE",
"295 17 OFFCURVE",
"209 17 CURVE SMOOTH",
"126 17 OFFCURVE",
"70 61 OFFCURVE",
"70 126 CURVE SMOOTH",
"70 127 LINE",
"48 127 LINE",
"48 126 LINE SMOOTH",
"48 49 OFFCURVE",
"112 -4 OFFCURVE",
"209 -4 CURVE SMOOTH"
);
}
);
width = 422;
},
{
layerId = "4F25946F-63AC-42D6-8D55-01CF6A99025B";
paths = (
{
closed = 1;
nodes = (
"383 -10 OFFCURVE",
"475 49 OFFCURVE",
"475 145 CURVE SMOOTH",
"475 214 OFFCURVE",
"427 267 OFFCURVE",
"349 290 CURVE SMOOTH",
"289 308 OFFCURVE",
"207 306 OFFCURVE",
"207 339 CURVE SMOOTH",
"207 352 OFFCURVE",
"220 361 OFFCURVE",
"241 361 CURVE SMOOTH",
"260 361 OFFCURVE",
"276 353 OFFCURVE",
"276 332 CURVE",
"277 332 LINE",
"471 332 LINE",
"471 332 LINE",
"465 441 OFFCURVE",
"384 510 OFFCURVE",
"233 510 CURVE SMOOTH",
"96 510 OFFCURVE",
"4 453 OFFCURVE",
"4 361 CURVE SMOOTH",
"4 291 OFFCURVE",
"56 233 OFFCURVE",
"142 209 CURVE SMOOTH",
"207 191 OFFCURVE",
"270 198 OFFCURVE",
"270 168 CURVE SMOOTH",
"270 156 OFFCURVE",
"261 142 OFFCURVE",
"239 142 CURVE SMOOTH",
"212 142 OFFCURVE",
"202 162 OFFCURVE",
"202 175 CURVE SMOOTH",
"202 175 LINE",
"3 178 LINE",
"3 178 LINE",
"3 61 OFFCURVE",
"91 -10 OFFCURVE",
"244 -10 CURVE SMOOTH"
);
}
);
width = 478;
},
{
associatedMasterId = "262880E7-CFE1-4BDA-902E-E24798F3240A";
layerId = "677A5083-0B4E-4805-9AE1-F115960A3564";
name = "Semi Bold{101, 100}";
paths = (
{
closed = 1;
nodes = (
"365 -10 OFFCURVE",
"436 48 OFFCURVE",
"436 133 CURVE SMOOTH",
"436 201 OFFCURVE",
"390 252 OFFCURVE",
"297 286 CURVE SMOOTH",
"206 319 OFFCURVE",
"170 333 OFFCURVE",
"170 369 CURVE SMOOTH",
"170 401 OFFCURVE",
"198 421 OFFCURVE",
"244 421 CURVE SMOOTH",
"294 421 OFFCURVE",
"324 397 OFFCURVE",
"324 358 CURVE SMOOTH",
"324 352 LINE",
"431 352 LINE",
"431 358 LINE SMOOTH",
"431 452 OFFCURVE",
"360 510 OFFCURVE",
"246 510 CURVE SMOOTH",
"131 510 OFFCURVE",
"61 451 OFFCURVE",
"61 369 CURVE SMOOTH",
"61 295 OFFCURVE",
"117 248 OFFCURVE",
"197 219 CURVE SMOOTH",
"282 188 OFFCURVE",
"323 173 OFFCURVE",
"323 135 CURVE SMOOTH",
"323 103 OFFCURVE",
"293 78 OFFCURVE",
"246 78 CURVE SMOOTH",
"198 78 OFFCURVE",
"169 103 OFFCURVE",
"169 137 CURVE SMOOTH",
"169 146 LINE",
"59 146 LINE",
"59 141 LINE SMOOTH",
"59 47 OFFCURVE",
"133 -10 OFFCURVE",
"248 -10 CURVE SMOOTH"
);
}
);
width = 494;
}
);
unicode = 0073;
},
{
color = 1;
glyphname = t;
lastChange = "2016-10-19 09:23:16 +0000";
layers = (
{
layerId = "262880E7-CFE1-4BDA-902E-E24798F3240A";
paths = (
{
closed = 1;
nodes = (
"282 0 LINE",
"282 21 LINE",
"258 21 LINE SMOOTH",
"177 21 OFFCURVE",
"154 57 OFFCURVE",
"154 153 CURVE SMOOTH",
"154 610 LINE",
"132 610 LINE",
"132 153 LINE SMOOTH",
"132 43 OFFCURVE",
"164 0 OFFCURVE",
"258 0 CURVE SMOOTH"
);
},
{
closed = 1;
nodes = (
"268 479 LINE",
"268 500 LINE",
"68 500 LINE",
"68 479 LINE"
);
}
);
width = 294;
},
{
layerId = "4F25946F-63AC-42D6-8D55-01CF6A99025B";
paths = (
{
closed = 1;
nodes = (
"295 4 LINE",
"301 184 LINE",
"298 184 LINE",
"260 180 OFFCURVE",
"238 175 OFFCURVE",
"238 206 CURVE SMOOTH",
"238 700 LINE",
"44 700 LINE",
"44 166 LINE SMOOTH",
"44 6 OFFCURVE",
"107 -21 OFFCURVE",
"289 4 CURVE"
);
},
{
closed = 1;
nodes = (
"318 326 LINE",
"318 500 LINE",
"0 500 LINE",
"0 326 LINE"
);
}
);
width = 321;
}
);
unicode = 0074;
},
{
color = 1;
glyphname = u;
lastChange = "2016-10-19 09:22:59 +0000";
layers = (
{
layerId = "262880E7-CFE1-4BDA-902E-E24798F3240A";
paths = (
{
closed = 1;
nodes = (
"355 -3 OFFCURVE",
"413 57 OFFCURVE",
"413 157 CURVE",
"396 157 LINE",
"396 70 OFFCURVE",
"341 18 OFFCURVE",
"254 18 CURVE SMOOTH",
"169 18 OFFCURVE",
"118 67 OFFCURVE",
"118 154 CURVE SMOOTH",
"118 500 LINE",
"96 500 LINE",
"96 164 LINE SMOOTH",
"96 58 OFFCURVE",
"155 -3 OFFCURVE",
"249 -3 CURVE SMOOTH"
);
},
{
closed = 1;
nodes = (
"418 0 LINE",
"418 500 LINE",
"396 500 LINE",
"396 0 LINE"
);
}
);
width = 514;
},
{
layerId = "4F25946F-63AC-42D6-8D55-01CF6A99025B";
paths = (
{
closed = 1;
nodes = (
"328 -2 OFFCURVE",
"375 96 OFFCURVE",
"375 196 CURVE",
"310 188 LINE",
"310 165 OFFCURVE",
"292 150 OFFCURVE",
"266 150 CURVE SMOOTH",
"240 150 OFFCURVE",
"223 165 OFFCURVE",
"223 188 CURVE SMOOTH",
"223 500 LINE",
"15 500 LINE",
"15 150 LINE SMOOTH",
"15 49 OFFCURVE",
"64 -2 OFFCURVE",
"175 -2 CURVE SMOOTH"
);
},
{
closed = 1;
nodes = (
"518 0 LINE",
"518 500 LINE",
"310 500 LINE",
"310 0 LINE"
);
}
);
width = 533;
},
{
associatedMasterId = "4F25946F-63AC-42D6-8D55-01CF6A99025B";
layerId = "47FA07B0-C6A0-4AEE-ADEB-F55ADBF433D4";
name = "Medium{91,100}";
paths = (
{
closed = 1;
nodes = (
"343 -3 OFFCURVE",
"421 67 OFFCURVE",
"421 168 CURVE",
"364 169 LINE",
"364 106 OFFCURVE",
"323 68 OFFCURVE",
"259 68 CURVE SMOOTH",
"196 68 OFFCURVE",
"158 104 OFFCURVE",
"158 167 CURVE SMOOTH",
"158 500 LINE",
"66 500 LINE",
"66 159 LINE SMOOTH",
"66 56 OFFCURVE",
"119 -3 OFFCURVE",
"226 -3 CURVE SMOOTH"
);
},
{
closed = 1;
nodes = (
"456 0 LINE",
"456 500 LINE",
"364 500 LINE",
"364 0 LINE"
);
}
);
width = 527;
}
);
unicode = 0075;
},
{
color = 1;
glyphname = v;
lastChange = "2016-10-19 09:23:00 +0000";
layers = (
{
layerId = "262880E7-CFE1-4BDA-902E-E24798F3240A";
paths = (
{
closed = 1;
nodes = (
"199 0 LINE",
"364 500 LINE",
"342 500 LINE",
"188 35 LINE",
"34 500 LINE",
"12 500 LINE",
"177 0 LINE"
);
}
);
width = 376;
},
{
layerId = "4F25946F-63AC-42D6-8D55-01CF6A99025B";
paths = (
{
closed = 1;
nodes = (
"359 0 LINE",
"523 500 LINE",
"312 500 LINE",
"263 257 LINE",
"214 500 LINE",
"3 500 LINE",
"167 0 LINE"
);
}
);
width = 526;
},
{
associatedMasterId = "262880E7-CFE1-4BDA-902E-E24798F3240A";
layerId = "30C42329-3409-4879-A8EC-0B65B1A31C66";
name = "Medium { 91, 100}";
paths = (
{
closed = 1;
nodes = (
"285 0 LINE",
"442 500 LINE",
"349 500 LINE",
"241 129 LINE",
"133 500 LINE",
"41 500 LINE",
"198 0 LINE"
);
}
);
width = 483;
}
);
unicode = 0076;
},
{
color = 1;
glyphname = w;
lastChange = "2016-10-19 09:23:00 +0000";
layers = (
{
layerId = "262880E7-CFE1-4BDA-902E-E24798F3240A";
paths = (
{
closed = 1;
nodes = (
"181 0 LINE",
"305 461 LINE",
"429 0 LINE",
"451 0 LINE",
"587 500 LINE",
"565 500 LINE",
"441 27 LINE",
"314 500 LINE",
"296 500 LINE",
"171 27 LINE",
"46 500 LINE",
"24 500 LINE",
"159 0 LINE"
);
}
);
width = 611;
},
{
layerId = "4F25946F-63AC-42D6-8D55-01CF6A99025B";
paths = (
{
closed = 1;
nodes = (
"322 0 LINE",
"355 240 LINE",
"392 0 LINE",
"589 0 LINE",
"709 500 LINE",
"515 500 LINE",
"482 287 LINE",
"442 500 LINE",
"273 500 LINE",
"234 287 LINE",
"199 500 LINE",
"6 500 LINE",
"125 0 LINE"
);
}
);
width = 715;
}
);
unicode = 0077;
},
{
color = 1;
glyphname = x;
lastChange = "2016-10-19 09:23:00 +0000";
layers = (
{
layerId = "262880E7-CFE1-4BDA-902E-E24798F3240A";
paths = (
{
closed = 1;
nodes = (
"342 500 LINE",
"188 266 LINE",
"34 500 LINE",
"12 500 LINE",
"178 250 LINE",
"12 0 LINE",
"34 0 LINE",
"188 234 LINE",
"342 0 LINE",
"364 0 LINE",
"198 250 LINE",
"364 500 LINE"
);
}
);
width = 376;
},
{
layerId = "4F25946F-63AC-42D6-8D55-01CF6A99025B";
paths = (
{
closed = 1;
nodes = (
"314 500 LINE",
"269 411 LINE",
"225 500 LINE",
"3 500 LINE",
"161 250 LINE",
"3 0 LINE",
"225 0 LINE",
"269 89 LINE",
"314 0 LINE",
"535 0 LINE",
"378 250 LINE",
"535 500 LINE"
);
}
);
width = 535;
},
{
associatedMasterId = "262880E7-CFE1-4BDA-902E-E24798F3240A";
layerId = "A7F0FF68-370D-4ABA-A088-97B4F33DE289";
name = "Light Oct 15 16, 02:53";
paths = (
{
closed = 1;
nodes = (
"368 501 LINE",
"390 501 LINE",
"60 -1 LINE",
"38 -1 LINE"
);
},
{
closed = 1;
nodes = (
"38 501 LINE",
"60 501 LINE",
"390 -1 LINE",
"368 -1 LINE"
);
}
);
width = 428;
},
{
associatedMasterId = "4F25946F-63AC-42D6-8D55-01CF6A99025B";
layerId = "C8E6816F-D14D-432C-92C0-4654658DD355";
name = "Bold Oct 15 16, 02:53";
paths = (
{
closed = 1;
nodes = (
"306 500 LINE",
"527 500 LINE",
"217 0 LINE",
"-5 0 LINE"
);
},
{
closed = 1;
nodes = (
"-5 500 LINE",
"217 500 LINE",
"527 0 LINE",
"306 0 LINE"
);
}
);
width = 522;
}
);
unicode = 0078;
},
{
color = 1;
glyphname = y;
lastChange = "2016-10-19 09:23:00 +0000";
layers = (
{
layerId = "262880E7-CFE1-4BDA-902E-E24798F3240A";
paths = (
{
closed = 1;
nodes = (
"189 27 LINE",
"34 500 LINE",
"12 500 LINE",
"179 0 LINE",
"157 -67 LINE SMOOTH",
"123 -169 OFFCURVE",
"100 -190 OFFCURVE",
"37 -190 CURVE",
"37 -211 LINE",
"112 -211 OFFCURVE",
"141 -183 OFFCURVE",
"177 -73 CURVE SMOOTH",
"366 500 LINE",
"344 500 LINE"
);
}
);
width = 390;
},
{
layerId = "4F25946F-63AC-42D6-8D55-01CF6A99025B";
paths = (
{
closed = 1;
nodes = (
"257 321 LINE",
"211 500 LINE",
"3 500 LINE",
"166 106 LINE",
"158 82 LINE SMOOTH",
"145 42 OFFCURVE",
"130 30 OFFCURVE",
"72 30 CURVE",
"72 -128 LINE",
"238 -128 OFFCURVE",
"296 -72 OFFCURVE",
"336 35 CURVE SMOOTH",
"511 500 LINE",
"303 500 LINE"
);
}
);
width = 514;
}
);
unicode = 0079;
},
{
color = 1;
glyphname = z;
lastChange = "2016-10-19 09:23:00 +0000";
layers = (
{
layerId = "262880E7-CFE1-4BDA-902E-E24798F3240A";
paths = (
{
closed = 1;
nodes = (
"352 0 LINE",
"352 21 LINE",
"59 21 LINE",
"362 477 LINE",
"362 498 LINE",
"40 498 LINE",
"40 477 LINE",
"339 477 LINE",
"36 21 LINE",
"36 0 LINE"
);
}
);
width = 398;
},
{
layerId = "4F25946F-63AC-42D6-8D55-01CF6A99025B";
paths = (
{
closed = 1;
nodes = (
"420 10 LINE",
"420 157 LINE",
"245 157 LINE",
"424 348 LINE",
"424 496 LINE",
"3 496 LINE",
"3 348 LINE",
"191 347 LINE",
"4 157 LINE",
"3 10 LINE"
);
}
);
width = 430;
},
{
associatedMasterId = "4F25946F-63AC-42D6-8D55-01CF6A99025B";
layerId = "516F1C78-99C1-4D19-A6A1-804BC5CB958E";
name = "Demibold {119,100}";
paths = (
{
closed = 1;
nodes = (
"389 6 LINE",
"389 113 LINE",
"183 113 LINE",
"391 386 LINE",
"391 497 LINE",
"32 497 LINE",
"32 386 LINE",
"255 386 LINE",
"42 113 LINE",
"42 6 LINE"
);
}
);
width = 441;
}
);
unicode = 007A;
},
{
color = 1;
glyphname = zero;
lastChange = "2016-10-19 06:30:08 +0000";
layers = (
{
layerId = "262880E7-CFE1-4BDA-902E-E24798F3240A";
paths = (
{
closed = 1;
nodes = (
"374 -9 OFFCURVE",
"429 45 OFFCURVE",
"429 150 CURVE SMOOTH",
"429 550 LINE SMOOTH",
"429 655 OFFCURVE",
"374 709 OFFCURVE",
"269 709 CURVE SMOOTH",
"164 709 OFFCURVE",
"109 655 OFFCURVE",
"109 550 CURVE SMOOTH",
"109 150 LINE SMOOTH",
"109 45 OFFCURVE",
"164 -9 OFFCURVE",
"269 -9 CURVE SMOOTH"
);
},
{
closed = 1;
nodes = (
"178 11 OFFCURVE",
"131 58 OFFCURVE",
"131 150 CURVE SMOOTH",
"131 550 LINE SMOOTH",
"131 642 OFFCURVE",
"178 690 OFFCURVE",
"269 690 CURVE SMOOTH",
"360 690 OFFCURVE",
"407 642 OFFCURVE",
"407 550 CURVE SMOOTH",
"407 150 LINE SMOOTH",
"407 58 OFFCURVE",
"360 11 OFFCURVE",
"269 11 CURVE SMOOTH"
);
}
);
width = 538;
},
{
layerId = "4F25946F-63AC-42D6-8D55-01CF6A99025B";
paths = (
{
closed = 1;
nodes = (
"467 -10 OFFCURVE",
"555 73 OFFCURVE",
"555 233 CURVE SMOOTH",
"555 467 LINE SMOOTH",
"555 627 OFFCURVE",
"467 710 OFFCURVE",
"295 710 CURVE SMOOTH",
"123 710 OFFCURVE",
"35 627 OFFCURVE",
"35 467 CURVE SMOOTH",
"35 233 LINE SMOOTH",
"35 73 OFFCURVE",
"123 -10 OFFCURVE",
"295 -10 CURVE SMOOTH"
);
},
{
closed = 1;
nodes = (
"266 174 OFFCURVE",
"247 194 OFFCURVE",
"247 223 CURVE SMOOTH",
"247 477 LINE SMOOTH",
"247 506 OFFCURVE",
"266 526 OFFCURVE",
"295 526 CURVE SMOOTH",
"324 526 OFFCURVE",
"343 506 OFFCURVE",
"343 477 CURVE SMOOTH",
"343 223 LINE SMOOTH",
"343 194 OFFCURVE",
"324 174 OFFCURVE",
"295 174 CURVE SMOOTH"
);
}
);
width = 590;
}
);
unicode = 0030;
},
{
color = 1;
glyphname = one;
lastChange = "2016-10-19 06:30:08 +0000";
layers = (
{
layerId = "4F25946F-63AC-42D6-8D55-01CF6A99025B";
paths = (
{
closed = 1;
nodes = (
"288 0 LINE",
"288 700 LINE",
"76 700 LINE",
"76 0 LINE"
);
},
{
closed = 1;
nodes = (
"13 512 LINE",
"76 512 LINE",
"76 700 LINE",
"13 674 LINE"
);
}
);
width = 346;
},
{
layerId = "262880E7-CFE1-4BDA-902E-E24798F3240A";
paths = (
{
closed = 1;
nodes = (
"142 0 LINE",
"142 700 LINE",
"120 700 LINE",
"120 0 LINE"
);
},
{
closed = 1;
nodes = (
"79 647 LINE",
"120 679 LINE",
"120 700 LINE",
"79 668 LINE"
);
}
);
width = 260;
}
);
unicode = 0031;
},
{
color = 1;
glyphname = two;
lastChange = "2016-10-19 06:30:09 +0000";
layers = (
{
layerId = "4F25946F-63AC-42D6-8D55-01CF6A99025B";
paths = (
{
closed = 1;
nodes = (
"518 0 LINE",
"518 188 LINE",
"271 188 LINE",
"502 447 LINE",
"519 475 OFFCURVE",
"530 500 OFFCURVE",
"530 534 CURVE SMOOTH",
"530 633 OFFCURVE",
"435 700 OFFCURVE",
"278 700 CURVE SMOOTH",
"119 700 OFFCURVE",
"18 631 OFFCURVE",
"18 519 CURVE",
"18 454 LINE",
"226 455 LINE",
"226 481 LINE",
"226 506 OFFCURVE",
"243 523 OFFCURVE",
"268 523 CURVE SMOOTH",
"296 523 OFFCURVE",
"308 502 OFFCURVE",
"308 489 CURVE SMOOTH",
"308 474 OFFCURVE",
"294 455 OFFCURVE",
"269 426 CURVE",
"21 171 LINE",
"21 0 LINE"
);
}
);
width = 545;
},
{
layerId = "262880E7-CFE1-4BDA-902E-E24798F3240A";
paths = (
{
closed = 1;
nodes = (
"375 0 LINE",
"375 21 LINE",
"72 21 LINE",
"312 364 LINE SMOOTH",
"350 419 OFFCURVE",
"374 470 OFFCURVE",
"374 530 CURVE SMOOTH",
"374 615 OFFCURVE",
"325 705 OFFCURVE",
"211 705 CURVE SMOOTH",
"106 705 OFFCURVE",
"43 635 OFFCURVE",
"43 500 CURVE",
"43 479 LINE",
"65 479 LINE",
"65 498 LINE SMOOTH",
"65 616 OFFCURVE",
"119 684 OFFCURVE",
"210 684 CURVE SMOOTH",
"298 684 OFFCURVE",
"352 620 OFFCURVE",
"352 528 CURVE SMOOTH",
"352 476 OFFCURVE",
"335 434 OFFCURVE",
"307 395 CURVE SMOOTH",
"43 21 LINE",
"43 0 LINE"
);
}
);
width = 423;
}
);
unicode = 0032;
},
{
color = 1;
glyphname = eight;
lastChange = "2016-10-19 06:30:08 +0000";
layers = (
{
layerId = "262880E7-CFE1-4BDA-902E-E24798F3240A";
paths = (
{
closed = 1;
nodes = (
"365 364 OFFCURVE",
"420 418 OFFCURVE",
"420 523 CURVE SMOOTH",
"420 548 LINE SMOOTH",
"420 653 OFFCURVE",
"365 707 OFFCURVE",
"260 707 CURVE SMOOTH",
"155 707 OFFCURVE",
"100 653 OFFCURVE",
"100 548 CURVE SMOOTH",
"100 523 LINE SMOOTH",
"100 418 OFFCURVE",
"155 364 OFFCURVE",
"260 364 CURVE SMOOTH"
);
},
{
closed = 1;
nodes = (
"169 384 OFFCURVE",
"122 431 OFFCURVE",
"122 523 CURVE SMOOTH",
"122 548 LINE SMOOTH",
"122 640 OFFCURVE",
"169 688 OFFCURVE",
"260 688 CURVE SMOOTH",
"351 688 OFFCURVE",
"398 640 OFFCURVE",
"398 548 CURVE SMOOTH",
"398 523 LINE SMOOTH",
"398 431 OFFCURVE",
"351 384 OFFCURVE",
"260 384 CURVE SMOOTH"
);
},
{
closed = 1;
nodes = (
"365 -18 OFFCURVE",
"420 36 OFFCURVE",
"420 141 CURVE SMOOTH",
"420 225 LINE SMOOTH",
"420 330 OFFCURVE",
"365 384 OFFCURVE",
"260 384 CURVE SMOOTH",
"155 384 OFFCURVE",
"100 330 OFFCURVE",
"100 225 CURVE SMOOTH",
"100 141 LINE SMOOTH",
"100 36 OFFCURVE",
"155 -18 OFFCURVE",
"260 -18 CURVE SMOOTH"
);
},
{
closed = 1;
nodes = (
"169 2 OFFCURVE",
"122 49 OFFCURVE",
"122 141 CURVE SMOOTH",
"122 225 LINE SMOOTH",
"122 317 OFFCURVE",
"169 365 OFFCURVE",
"260 365 CURVE SMOOTH",
"351 365 OFFCURVE",
"398 317 OFFCURVE",
"398 225 CURVE SMOOTH",
"398 141 LINE SMOOTH",
"398 49 OFFCURVE",
"351 2 OFFCURVE",
"260 2 CURVE SMOOTH"
);
}
);
width = 520;
},
{
layerId = "4F25946F-63AC-42D6-8D55-01CF6A99025B";
paths = (
{
closed = 1;
nodes = (
"321 337 OFFCURVE",
"512 343 OFFCURVE",
"512 498 CURVE",
"512 507 LINE",
"510 641 OFFCURVE",
"429 711 OFFCURVE",
"276 711 CURVE",
"122 711 OFFCURVE",
"42 650 OFFCURVE",
"42 516 CURVE",
"42 507 LINE",
"43 344 OFFCURVE",
"223 337 OFFCURVE",
"276 337 CURVE SMOOTH"
);
},
{
closed = 1;
nodes = (
"250 458 OFFCURVE",
"233 474 OFFCURVE",
"233 499 CURVE SMOOTH",
"233 533 LINE SMOOTH",
"233 558 OFFCURVE",
"250 574 OFFCURVE",
"276 574 CURVE SMOOTH",
"302 574 OFFCURVE",
"320 558 OFFCURVE",
"320 533 CURVE SMOOTH",
"320 499 LINE SMOOTH",
"320 474 OFFCURVE",
"302 458 OFFCURVE",
"276 458 CURVE SMOOTH"
);
},
{
closed = 1;
nodes = (
"451 -5 OFFCURVE",
"532 77 OFFCURVE",
"532 202 CURVE",
"532 231 LINE",
"532 324 OFFCURVE",
"441 455 OFFCURVE",
"277 401 CURVE",
"119 455 OFFCURVE",
"22 316 OFFCURVE",
"22 231 CURVE",
"22 202 LINE",
"23 69 OFFCURVE",
"109 -5 OFFCURVE",
"276 -5 CURVE SMOOTH"
);
},
{
closed = 1;
nodes = (
"250 139 OFFCURVE",
"233 155 OFFCURVE",
"233 180 CURVE SMOOTH",
"233 258 LINE SMOOTH",
"233 283 OFFCURVE",
"250 299 OFFCURVE",
"276 299 CURVE",
"302 299 OFFCURVE",
"320 283 OFFCURVE",
"320 258 CURVE SMOOTH",
"320 180 LINE SMOOTH",
"320 155 OFFCURVE",
"302 139 OFFCURVE",
"276 139 CURVE SMOOTH"
);
}
);
width = 554;
},
{
associatedMasterId = "4F25946F-63AC-42D6-8D55-01CF6A99025B";
layerId = "9541491C-EA7C-4850-9E65-38E203544E44";
name = "Medium {91,100}";
paths = (
{
closed = 1;
nodes = (
"378 354 OFFCURVE",
"448 413 OFFCURVE",
"448 514 CURVE SMOOTH",
"448 532 LINE SMOOTH",
"447 644 OFFCURVE",
"377 709 OFFCURVE",
"259 709 CURVE SMOOTH",
"141 709 OFFCURVE",
"71 645 OFFCURVE",
"71 536 CURVE SMOOTH",
"71 517 LINE SMOOTH",
"71 414 OFFCURVE",
"141 354 OFFCURVE",
"259 354 CURVE SMOOTH"
);
},
{
closed = 1;
nodes = (
"195 416 OFFCURVE",
"157 453 OFFCURVE",
"157 517 CURVE SMOOTH",
"157 546 LINE SMOOTH",
"157 610 OFFCURVE",
"195 648 OFFCURVE",
"259 648 CURVE SMOOTH",
"323 648 OFFCURVE",
"361 610 OFFCURVE",
"361 546 CURVE SMOOTH",
"361 517 LINE SMOOTH",
"361 453 OFFCURVE",
"323 416 OFFCURVE",
"259 416 CURVE SMOOTH"
);
},
{
closed = 1;
nodes = (
"383 -13 OFFCURVE",
"456 52 OFFCURVE",
"456 164 CURVE SMOOTH",
"456 227 LINE SMOOTH",
"456 350 OFFCURVE",
"383 410 OFFCURVE",
"260 390 CURVE SMOOTH",
"136 411 OFFCURVE",
"63 350 OFFCURVE",
"63 227 CURVE SMOOTH",
"63 164 LINE SMOOTH",
"64 52 OFFCURVE",
"136 -13 OFFCURVE",
"259 -13 CURVE SMOOTH"
);
},
{
closed = 1;
nodes = (
"195 54 OFFCURVE",
"157 92 OFFCURVE",
"157 156 CURVE SMOOTH",
"157 238 LINE SMOOTH",
"157 302 OFFCURVE",
"195 340 OFFCURVE",
"259 340 CURVE SMOOTH",
"323 340 OFFCURVE",
"361 302 OFFCURVE",
"361 238 CURVE SMOOTH",
"361 156 LINE SMOOTH",
"361 92 OFFCURVE",
"323 54 OFFCURVE",
"259 54 CURVE SMOOTH"
);
}
);
width = 519;
}
);
unicode = 0038;
},
{
color = 1;
glyphname = colon;
lastChange = "2016-10-19 06:30:08 +0000";
layers = (
{
layerId = "262880E7-CFE1-4BDA-902E-E24798F3240A";
paths = (
{
closed = 1;
nodes = (
"181 37 OFFCURVE",
"200 55 OFFCURVE",
"200 78 CURVE SMOOTH",
"200 100 OFFCURVE",
"181 118 OFFCURVE",
"159 118 CURVE SMOOTH",
"137 118 OFFCURVE",
"118 100 OFFCURVE",
"118 78 CURVE SMOOTH",
"118 55 OFFCURVE",
"136 37 OFFCURVE",
"159 37 CURVE SMOOTH"
);
},
{
closed = 1;
nodes = (
"181 350 OFFCURVE",
"200 368 OFFCURVE",
"200 391 CURVE SMOOTH",
"200 413 OFFCURVE",
"181 431 OFFCURVE",
"159 431 CURVE SMOOTH",
"137 431 OFFCURVE",
"118 413 OFFCURVE",
"118 391 CURVE SMOOTH",
"118 368 OFFCURVE",
"136 350 OFFCURVE",
"159 350 CURVE SMOOTH"
);
}
);
width = 318;
},
{
layerId = "4F25946F-63AC-42D6-8D55-01CF6A99025B";
paths = (
{
closed = 1;
nodes = (
"187 -6 OFFCURVE",
"236 40 OFFCURVE",
"236 99 CURVE",
"236 156 OFFCURVE",
"187 202 OFFCURVE",
"130 202 CURVE SMOOTH",
"73 202 OFFCURVE",
"24 156 OFFCURVE",
"24 99 CURVE SMOOTH",
"24 40 OFFCURVE",
"71 -6 OFFCURVE",
"130 -6 CURVE SMOOTH"
);
},
{
closed = 1;
nodes = (
"187 288 OFFCURVE",
"236 334 OFFCURVE",
"236 393 CURVE",
"236 450 OFFCURVE",
"187 496 OFFCURVE",
"130 496 CURVE SMOOTH",
"73 496 OFFCURVE",
"24 450 OFFCURVE",
"24 393 CURVE SMOOTH",
"24 334 OFFCURVE",
"71 288 OFFCURVE",
"130 288 CURVE SMOOTH"
);
}
);
width = 260;
}
);
unicode = 003A;
},
{
color = 1;
glyphname = comma;
lastChange = "2016-10-19 06:30:09 +0000";
layers = (
{
layerId = "262880E7-CFE1-4BDA-902E-E24798F3240A";
paths = (
{
closed = 1;
nodes = (
"187 153 LINE",
"165 153 LINE",
"110 -66 LINE",
"132 -66 LINE"
);
}
);
width = 298;
},
{
layerId = "4F25946F-63AC-42D6-8D55-01CF6A99025B";
paths = (
{
closed = 1;
nodes = (
"223 143 LINE",
"43 142 LINE",
"24 -86 LINE",
"172 -86 LINE"
);
}
);
width = 247;
}
);
unicode = 002C;
},
{
color = 1;
glyphname = exclam;
lastChange = "2016-10-19 06:30:08 +0000";
layers = (
{
layerId = "262880E7-CFE1-4BDA-902E-E24798F3240A";
paths = (
{
closed = 1;
nodes = (
"163 220 LINE",
"163 700 LINE",
"141 700 LINE",
"141 220 LINE"
);
},
{
closed = 1;
nodes = (
"171 5 OFFCURVE",
"190 23 OFFCURVE",
"190 46 CURVE SMOOTH",
"190 68 OFFCURVE",
"171 86 OFFCURVE",
"149 86 CURVE SMOOTH",
"127 86 OFFCURVE",
"108 68 OFFCURVE",
"108 46 CURVE SMOOTH",
"108 23 OFFCURVE",
"126 5 OFFCURVE",
"149 5 CURVE SMOOTH"
);
}
);
width = 302;
},
{
layerId = "4F25946F-63AC-42D6-8D55-01CF6A99025B";
paths = (
{
closed = 1;
nodes = (
"229 250 LINE",
"259 700 LINE",
"51 700 LINE",
"81 250 LINE"
);
},
{
closed = 1;
nodes = (
"210 -6 OFFCURVE",
"259 40 OFFCURVE",
"259 99 CURVE",
"259 156 OFFCURVE",
"210 202 OFFCURVE",
"153 202 CURVE SMOOTH",
"96 202 OFFCURVE",
"47 156 OFFCURVE",
"47 99 CURVE SMOOTH",
"47 40 OFFCURVE",
"94 -6 OFFCURVE",
"153 -6 CURVE SMOOTH"
);
}
);
width = 309;
}
);
unicode = 0021;
},
{
color = 1;
glyphname = period;
lastChange = "2016-10-19 06:30:09 +0000";
layers = (
{
layerId = "262880E7-CFE1-4BDA-902E-E24798F3240A";
paths = (
{
closed = 1;
nodes = (
"192 5 OFFCURVE",
"211 23 OFFCURVE",
"211 46 CURVE SMOOTH",
"211 68 OFFCURVE",
"192 86 OFFCURVE",
"170 86 CURVE SMOOTH",
"148 86 OFFCURVE",
"129 68 OFFCURVE",
"129 46 CURVE SMOOTH",
"129 23 OFFCURVE",
"147 5 OFFCURVE",
"170 5 CURVE SMOOTH"
);
}
);
width = 340;
},
{
layerId = "4F25946F-63AC-42D6-8D55-01CF6A99025B";
paths = (
{
closed = 1;
nodes = (
"184 -6 OFFCURVE",
"233 40 OFFCURVE",
"233 99 CURVE",
"233 156 OFFCURVE",
"184 202 OFFCURVE",
"127 202 CURVE SMOOTH",
"70 202 OFFCURVE",
"21 156 OFFCURVE",
"21 99 CURVE SMOOTH",
"21 40 OFFCURVE",
"68 -6 OFFCURVE",
"127 -6 CURVE SMOOTH"
);
}
);
width = 254;
}
);
unicode = 002E;
},
{
color = 1;
glyphname = question;
lastChange = "2016-10-19 06:30:09 +0000";
layers = (
{
layerId = "4F25946F-63AC-42D6-8D55-01CF6A99025B";
paths = (
{
closed = 1;
nodes = (
"338 223 LINE",
"338 238 OFFCURVE",
"338 256 OFFCURVE",
"338 262 CURVE SMOOTH",
"338 330 OFFCURVE",
"494 329 OFFCURVE",
"494 494 CURVE SMOOTH",
"494 629 OFFCURVE",
"396 710 OFFCURVE",
"250 710 CURVE SMOOTH",
"95 710 OFFCURVE",
"-8 618 OFFCURVE",
"-8 479 CURVE SMOOTH",
"-8 474 LINE",
"204 464 LINE",
"204 479 LINE SMOOTH",
"204 502 OFFCURVE",
"220 518 OFFCURVE",
"244 518 CURVE SMOOTH",
"265 518 OFFCURVE",
"279 506 OFFCURVE",
"279 487 CURVE SMOOTH",
"279 424 OFFCURVE",
"134 423 OFFCURVE",
"134 290 CURVE SMOOTH",
"134 268 OFFCURVE",
"134 261 OFFCURVE",
"134 224 CURVE"
);
},
{
closed = 1;
nodes = (
"298 -6 OFFCURVE",
"347 40 OFFCURVE",
"347 99 CURVE",
"347 156 OFFCURVE",
"298 202 OFFCURVE",
"241 202 CURVE SMOOTH",
"184 202 OFFCURVE",
"135 156 OFFCURVE",
"135 99 CURVE SMOOTH",
"135 40 OFFCURVE",
"182 -6 OFFCURVE",
"241 -6 CURVE SMOOTH"
);
}
);
width = 497;
},
{
layerId = "262880E7-CFE1-4BDA-902E-E24798F3240A";
paths = (
{
closed = 1;
nodes = (
"227 239 LINE",
"197 243 OFFCURVE",
"182 254 OFFCURVE",
"182 275 CURVE SMOOTH",
"182 346 OFFCURVE",
"363 378 OFFCURVE",
"363 546 CURVE SMOOTH",
"363 645 OFFCURVE",
"300 709 OFFCURVE",
"206 709 CURVE SMOOTH",
"111 709 OFFCURVE",
"47 645 OFFCURVE",
"47 550 CURVE SMOOTH",
"47 500 LINE",
"69 500 LINE",
"69 550 LINE SMOOTH",
"69 633 OFFCURVE",
"124 688 OFFCURVE",
"206 688 CURVE SMOOTH",
"287 688 OFFCURVE",
"341 633 OFFCURVE",
"341 549 CURVE SMOOTH",
"341 395 OFFCURVE",
"158 364 OFFCURVE",
"158 271 CURVE SMOOTH",
"158 235 OFFCURVE",
"186 213 OFFCURVE",
"227 215 CURVE"
);
},
{
closed = 1;
nodes = (
"213 5 OFFCURVE",
"232 23 OFFCURVE",
"232 46 CURVE SMOOTH",
"232 68 OFFCURVE",
"213 86 OFFCURVE",
"191 86 CURVE SMOOTH",
"169 86 OFFCURVE",
"150 68 OFFCURVE",
"150 46 CURVE SMOOTH",
"150 23 OFFCURVE",
"168 5 OFFCURVE",
"191 5 CURVE SMOOTH"
);
}
);
width = 413;
},
{
associatedMasterId = "4F25946F-63AC-42D6-8D55-01CF6A99025B";
layerId = "E56F6CC4-F9B5-46E1-BC01-FC7B34A3882B";
name = "DemiBold {119,100}";
paths = (
{
closed = 1;
nodes = (
"344 261 LINE",
"333 262 OFFCURVE",
"324 261 OFFCURVE",
"324 276 CURVE SMOOTH",
"324 341 OFFCURVE",
"489 355 OFFCURVE",
"489 519 CURVE SMOOTH",
"489 634 OFFCURVE",
"409 710 OFFCURVE",
"286 710 CURVE SMOOTH",
"161 710 OFFCURVE",
"74 630 OFFCURVE",
"74 512 CURVE SMOOTH",
"74 486 LINE",
"198 481 LINE",
"198 512 LINE SMOOTH",
"198 562 OFFCURVE",
"231 597 OFFCURVE",
"283 597 CURVE SMOOTH",
"333 597 OFFCURVE",
"364 565 OFFCURVE",
"364 516 CURVE SMOOTH",
"364 401 OFFCURVE",
"194 408 OFFCURVE",
"194 270 CURVE SMOOTH",
"194 214 OFFCURVE",
"222 166 OFFCURVE",
"332 182 CURVE"
);
},
{
closed = 1;
nodes = (
"313 -1 OFFCURVE",
"348 32 OFFCURVE",
"348 74 CURVE SMOOTH",
"348 115 OFFCURVE",
"313 148 OFFCURVE",
"272 148 CURVE SMOOTH",
"232 148 OFFCURVE",
"197 115 OFFCURVE",
"197 74 CURVE SMOOTH",
"197 32 OFFCURVE",
"230 -1 OFFCURVE",
"272 -1 CURVE SMOOTH"
);
}
);
width = 539;
}
);
unicode = 003F;
},
{
color = 1;
glyphname = quotedbl;
lastChange = "2016-10-19 06:30:09 +0000";
layers = (
{
layerId = "262880E7-CFE1-4BDA-902E-E24798F3240A";
paths = (
{
closed = 1;
nodes = (
"269 500 LINE",
"269 692 LINE",
"247 692 LINE",
"247 500 LINE"
);
},
{
closed = 1;
nodes = (
"159 500 LINE",
"159 692 LINE",
"137 692 LINE",
"137 500 LINE"
);
}
);
width = 406;
},
{
layerId = "4F25946F-63AC-42D6-8D55-01CF6A99025B";
paths = (
{
closed = 1;
nodes = (
"525 481 LINE",
"535 693 LINE",
"333 693 LINE",
"341 481 LINE"
);
},
{
closed = 1;
nodes = (
"255 481 LINE",
"265 693 LINE",
"63 693 LINE",
"73 481 LINE"
);
}
);
width = 598;
}
);
unicode = 0022;
},
{
color = 1;
glyphname = quotesingle;
lastChange = "2016-10-19 06:30:08 +0000";
layers = (
{
layerId = "262880E7-CFE1-4BDA-902E-E24798F3240A";
paths = (
{
closed = 1;
nodes = (
"159 697 LINE",
"137 697 LINE",
"137 507 LINE",
"159 507 LINE"
);
}
);
width = 296;
},
{
layerId = "4F25946F-63AC-42D6-8D55-01CF6A99025B";
paths = (
{
closed = 1;
nodes = (
"247 699 LINE",
"63 699 LINE",
"73 452 LINE",
"237 452 LINE"
);
}
);
width = 310;
}
);
unicode = 0027;
},
{
color = 1;
glyphname = semicolon;
lastChange = "2016-10-19 06:30:09 +0000";
layers = (
{
layerId = "262880E7-CFE1-4BDA-902E-E24798F3240A";
paths = (
{
closed = 1;
nodes = (
"178 370 OFFCURVE",
"197 388 OFFCURVE",
"197 411 CURVE",
"197 433 OFFCURVE",
"178 451 OFFCURVE",
"156 451 CURVE SMOOTH",
"134 451 OFFCURVE",
"115 433 OFFCURVE",
"115 411 CURVE SMOOTH",
"115 388 OFFCURVE",
"133 370 OFFCURVE",
"156 370 CURVE SMOOTH"
);
},
{
closed = 1;
nodes = (
"136 -60 LINE",
"172 147 LINE",
"150 147 LINE",
"114 -60 LINE"
);
}
);
width = 304;
},
{
layerId = "4F25946F-63AC-42D6-8D55-01CF6A99025B";
paths = (
{
closed = 1;
nodes = (
"184 288 OFFCURVE",
"233 334 OFFCURVE",
"233 393 CURVE",
"233 450 OFFCURVE",
"184 496 OFFCURVE",
"127 496 CURVE SMOOTH",
"70 496 OFFCURVE",
"21 450 OFFCURVE",
"21 393 CURVE SMOOTH",
"21 334 OFFCURVE",
"68 288 OFFCURVE",
"127 288 CURVE SMOOTH"
);
},
{
closed = 1;
nodes = (
"168 -46 LINE",
"219 183 LINE",
"49 182 LINE",
"30 -46 LINE"
);
}
);
width = 254;
}
);
unicode = 003B;
},
{
color = 1;
glyphname = slash;
lastChange = "2016-10-19 06:30:08 +0000";
layers = (
{
layerId = "262880E7-CFE1-4BDA-902E-E24798F3240A";
paths = (
{
closed = 1;
nodes = (
"51 0 LINE",
"189 700 LINE",
"167 700 LINE",
"29 0 LINE"
);
}
);
width = 218;
},
{
layerId = "4F25946F-63AC-42D6-8D55-01CF6A99025B";
paths = (
{
closed = 1;
nodes = (
"187 0 LINE",
"325 700 LINE",
"123 700 LINE",
"-15 0 LINE"
);
}
);
width = 310;
}
);
unicode = 002F;
},
{
color = 1;
glyphname = emdash;
lastChange = "2016-10-19 06:30:09 +0000";
layers = (
{
layerId = "262880E7-CFE1-4BDA-902E-E24798F3240A";
paths = (
{
closed = 1;
nodes = (
"506 251 LINE",
"506 272 LINE",
"98 272 LINE",
"98 251 LINE"
);
}
);
width = 604;
},
{
layerId = "4F25946F-63AC-42D6-8D55-01CF6A99025B";
paths = (
{
closed = 1;
nodes = (
"648 180 LINE",
"648 368 LINE",
"48 368 LINE",
"48 180 LINE"
);
}
);
width = 696;
}
);
unicode = 2014;
},
{
color = 1;
glyphname = hyphen;
lastChange = "2016-10-19 06:30:09 +0000";
layers = (
{
layerId = "4F25946F-63AC-42D6-8D55-01CF6A99025B";
paths = (
{
closed = 1;
nodes = (
"328 180 LINE",
"328 368 LINE",
"48 368 LINE",
"48 180 LINE"
);
}
);
width = 376;
},
{
layerId = "262880E7-CFE1-4BDA-902E-E24798F3240A";
paths = (
{
closed = 1;
nodes = (
"356 251 LINE",
"356 272 LINE",
"98 272 LINE",
"98 251 LINE"
);
}
);
width = 454;
}
);
unicode = 002D;
},
{
color = 1;
glyphname = dollar;
lastChange = "2016-10-19 06:30:09 +0000";
layers = (
{
layerId = "4F25946F-63AC-42D6-8D55-01CF6A99025B";
paths = (
{
closed = 1;
nodes = (
"444 -10 OFFCURVE",
"538 74 OFFCURVE",
"538 200 CURVE SMOOTH",
"538 312 OFFCURVE",
"464 381 OFFCURVE",
"351 425 CURVE SMOOTH",
"305 443 OFFCURVE",
"252 456 OFFCURVE",
"252 489 CURVE SMOOTH",
"252 503 OFFCURVE",
"262 518 OFFCURVE",
"286 518 CURVE SMOOTH",
"312 518 OFFCURVE",
"327 501 OFFCURVE",
"327 479 CURVE SMOOTH",
"327 464 LINE",
"539 474 LINE",
"539 479 LINE SMOOTH",
"539 617 OFFCURVE",
"432 710 OFFCURVE",
"280 710 CURVE SMOOTH",
"133 710 OFFCURVE",
"37 624 OFFCURVE",
"37 498 CURVE SMOOTH",
"37 389 OFFCURVE",
"110 318 OFFCURVE",
"224 275 CURVE SMOOTH",
"266 259 OFFCURVE",
"322 245 OFFCURVE",
"322 214 CURVE SMOOTH",
"322 201 OFFCURVE",
"313 182 OFFCURVE",
"287 182 CURVE SMOOTH",
"263 182 OFFCURVE",
"248 199 OFFCURVE",
"248 231 CURVE SMOOTH",
"248 236 LINE",
"25 226 LINE",
"25 221 LINE SMOOTH",
"25 83 OFFCURVE",
"131 -10 OFFCURVE",
"291 -10 CURVE SMOOTH"
);
},
{
closed = 1;
nodes = (
"362 -53 LINE",
"362 93 LINE",
"241 93 LINE",
"241 -53 LINE"
);
},
{
closed = 1;
nodes = (
"359 599 LINE",
"359 745 LINE",
"238 745 LINE",
"238 599 LINE"
);
}
);
width = 569;
},
{
layerId = "262880E7-CFE1-4BDA-902E-E24798F3240A";
paths = (
{
closed = 1;
nodes = (
"349 -5 OFFCURVE",
"412 50 OFFCURVE",
"412 149 CURVE SMOOTH",
"412 255 OFFCURVE",
"339 307 OFFCURVE",
"257 361 CURVE SMOOTH",
"176 414 OFFCURVE",
"112 457 OFFCURVE",
"112 550 CURVE SMOOTH",
"112 634 OFFCURVE",
"164 684 OFFCURVE",
"248 684 CURVE SMOOTH",
"332 684 OFFCURVE",
"384 635 OFFCURVE",
"384 548 CURVE SMOOTH",
"384 500 LINE",
"406 500 LINE",
"406 550 LINE SMOOTH",
"406 650 OFFCURVE",
"346 705 OFFCURVE",
"248 705 CURVE SMOOTH",
"150 705 OFFCURVE",
"90 649 OFFCURVE",
"90 553 CURVE SMOOTH",
"90 446 OFFCURVE",
"165 394 OFFCURVE",
"243 342 CURVE SMOOTH",
"320 291 OFFCURVE",
"390 248 OFFCURVE",
"390 152 CURVE SMOOTH",
"390 67 OFFCURVE",
"335 15 OFFCURVE",
"250 15 CURVE SMOOTH",
"165 15 OFFCURVE",
"118 68 OFFCURVE",
"118 154 CURVE SMOOTH",
"118 200 LINE",
"96 200 LINE",
"96 150 LINE SMOOTH",
"96 50 OFFCURVE",
"152 -5 OFFCURVE",
"251 -5 CURVE SMOOTH"
);
},
{
closed = 1;
nodes = (
"265 -88 LINE",
"265 2 LINE",
"243 2 LINE",
"243 -88 LINE"
);
},
{
closed = 1;
nodes = (
"258 702 LINE",
"258 792 LINE",
"236 792 LINE",
"236 702 LINE"
);
}
);
width = 502;
},
{
associatedMasterId = "4F25946F-63AC-42D6-8D55-01CF6A99025B";
layerId = "E869EA52-1DFA-43F8-82AD-AF9382669512";
name = "DemiBold{119,100}";
paths = (
{
closed = 1;
nodes = (
"387 -10 OFFCURVE",
"467 63 OFFCURVE",
"467 176 CURVE SMOOTH",
"467 286 OFFCURVE",
"394 347 OFFCURVE",
"295 395 CURVE SMOOTH",
"233 430 OFFCURVE",
"175 457 OFFCURVE",
"175 518 CURVE SMOOTH",
"175 565 OFFCURVE",
"204 598 OFFCURVE",
"256 598 CURVE SMOOTH",
"309 598 OFFCURVE",
"341 564 OFFCURVE",
"341 512 CURVE SMOOTH",
"341 481 LINE",
"465 486 LINE",
"465 512 LINE SMOOTH",
"465 632 OFFCURVE",
"380 710 OFFCURVE",
"253 710 CURVE SMOOTH",
"129 710 OFFCURVE",
"49 636 OFFCURVE",
"49 524 CURVE SMOOTH",
"49 415 OFFCURVE",
"123 353 OFFCURVE",
"221 306 CURVE SMOOTH",
"279 274 OFFCURVE",
"341 245 OFFCURVE",
"341 183 CURVE SMOOTH",
"341 137 OFFCURVE",
"311 103 OFFCURVE",
"259 103 CURVE SMOOTH",
"205 103 OFFCURVE",
"176 136 OFFCURVE",
"176 193 CURVE SMOOTH",
"176 219 LINE",
"46 214 LINE",
"46 188 LINE SMOOTH",
"46 68 OFFCURVE",
"128 -10 OFFCURVE",
"261 -10 CURVE SMOOTH"
);
},
{
closed = 1;
nodes = (
"306 -80 LINE",
"306 40 LINE",
"203 40 LINE",
"203 -80 LINE"
);
},
{
closed = 1;
nodes = (
"309 652 LINE",
"309 777 LINE",
"205 777 LINE",
"205 652 LINE"
);
}
);
width = 513;
}
);
unicode = 0024;
},
{
color = 1;
glyphname = at;
lastChange = "2016-10-19 06:30:09 +0000";
layers = (
{
layerId = "262880E7-CFE1-4BDA-902E-E24798F3240A";
paths = (
{
closed = 1;
nodes = (
"640 -71 OFFCURVE",
"802 92 OFFCURVE",
"802 290 CURVE SMOOTH",
"802 488 OFFCURVE",
"640 651 OFFCURVE",
"441 651 CURVE SMOOTH",
"242 651 OFFCURVE",
"80 488 OFFCURVE",
"80 290 CURVE SMOOTH",
"80 92 OFFCURVE",
"242 -71 OFFCURVE",
"441 -71 CURVE SMOOTH"
);
},
{
closed = 1;
nodes = (
"254 -50 OFFCURVE",
"102 102 OFFCURVE",
"102 290 CURVE SMOOTH",
"102 478 OFFCURVE",
"254 630 OFFCURVE",
"441 630 CURVE SMOOTH",
"628 630 OFFCURVE",
"780 478 OFFCURVE",
"780 290 CURVE SMOOTH",
"780 102 OFFCURVE",
"628 -50 OFFCURVE",
"441 -50 CURVE SMOOTH"
);
},
{
closed = 1;
nodes = (
"507 119 OFFCURVE",
"551 166 OFFCURVE",
"551 241 CURVE SMOOTH",
"551 383 LINE SMOOTH",
"551 458 OFFCURVE",
"507 505 OFFCURVE",
"435 505 CURVE SMOOTH",
"362 505 OFFCURVE",
"314 459 OFFCURVE",
"314 384 CURVE SMOOTH",
"314 240 LINE SMOOTH",
"314 165 OFFCURVE",
"362 119 OFFCURVE",
"435 119 CURVE SMOOTH"
);
},
{
closed = 1;
nodes = (
"370 135 OFFCURVE",
"331 175 OFFCURVE",
"331 240 CURVE SMOOTH",
"331 384 LINE SMOOTH",
"331 449 OFFCURVE",
"372 489 OFFCURVE",
"435 489 CURVE SMOOTH",
"499 489 OFFCURVE",
"540 449 OFFCURVE",
"540 384 CURVE SMOOTH",
"540 240 LINE SMOOTH",
"540 175 OFFCURVE",
"501 135 OFFCURVE",
"435 135 CURVE SMOOTH"
);
},
{
closed = 1;
nodes = (
"556 124 LINE",
"556 500 LINE",
"540 500 LINE",
"540 124 LINE"
);
}
);
width = 882;
},
{
layerId = "4F25946F-63AC-42D6-8D55-01CF6A99025B";
paths = (
{
closed = 1;
nodes = (
"578 -53 OFFCURVE",
"740 108 OFFCURVE",
"740 306 CURVE SMOOTH",
"740 504 OFFCURVE",
"578 665 OFFCURVE",
"380 665 CURVE SMOOTH",
"182 665 OFFCURVE",
"20 504 OFFCURVE",
"20 306 CURVE SMOOTH",
"20 108 OFFCURVE",
"182 -53 OFFCURVE",
"380 -53 CURVE SMOOTH"
);
},
{
closed = 1;
nodes = (
"245 69 OFFCURVE",
"145 170 OFFCURVE",
"145 306 CURVE SMOOTH",
"145 442 OFFCURVE",
"245 543 OFFCURVE",
"380 543 CURVE SMOOTH",
"515 543 OFFCURVE",
"615 442 OFFCURVE",
"615 306 CURVE SMOOTH",
"615 170 OFFCURVE",
"515 69 OFFCURVE",
"380 69 CURVE SMOOTH"
);
},
{
closed = 1;
nodes = (
"401 176 OFFCURVE",
"444 236 OFFCURVE",
"444 283 CURVE SMOOTH",
"444 290 LINE SMOOTH",
"444 295 OFFCURVE",
"436 419 OFFCURVE",
"344 419 CURVE",
"289 419 OFFCURVE",
"256 392 OFFCURVE",
"256 345 CURVE SMOOTH",
"256 255 LINE SMOOTH",
"256 213 OFFCURVE",
"281 176 OFFCURVE",
"337 176 CURVE SMOOTH"
);
},
{
closed = 1;
nodes = (
"362 258 OFFCURVE",
"354 265 OFFCURVE",
"354 277 CURVE SMOOTH",
"354 320 LINE SMOOTH",
"354 332 OFFCURVE",
"362 340 OFFCURVE",
"374 340 CURVE SMOOTH",
"386 340 OFFCURVE",
"395 332 OFFCURVE",
"395 320 CURVE SMOOTH",
"395 277 LINE SMOOTH",
"395 265 OFFCURVE",
"386 258 OFFCURVE",
"374 258 CURVE SMOOTH"
);
},
{
closed = 1;
nodes = (
"493 180 LINE",
"493 416 LINE",
"395 416 LINE",
"395 180 LINE"
);
}
);
width = 760;
}
);
unicode = 0040;
},
{
color = 1;
glyphname = copyright;
lastChange = "2016-10-19 06:30:09 +0000";
layers = (
{
layerId = "262880E7-CFE1-4BDA-902E-E24798F3240A";
paths = (
{
closed = 1;
nodes = (
"640 -71 OFFCURVE",
"802 92 OFFCURVE",
"802 290 CURVE SMOOTH",
"802 488 OFFCURVE",
"640 651 OFFCURVE",
"441 651 CURVE SMOOTH",
"242 651 OFFCURVE",
"80 488 OFFCURVE",
"80 290 CURVE SMOOTH",
"80 92 OFFCURVE",
"242 -71 OFFCURVE",
"441 -71 CURVE SMOOTH"
);
},
{
closed = 1;
nodes = (
"254 -50 OFFCURVE",
"102 102 OFFCURVE",
"102 290 CURVE SMOOTH",
"102 478 OFFCURVE",
"254 630 OFFCURVE",
"441 630 CURVE SMOOTH",
"628 630 OFFCURVE",
"780 478 OFFCURVE",
"780 290 CURVE SMOOTH",
"780 102 OFFCURVE",
"628 -50 OFFCURVE",
"441 -50 CURVE SMOOTH"
);
},
{
closed = 1;
nodes = (
"513 103 OFFCURVE",
"559 148 OFFCURVE",
"559 223 CURVE SMOOTH",
"559 225 LINE",
"543 225 LINE",
"543 223 LINE SMOOTH",
"543 158 OFFCURVE",
"504 118 OFFCURVE",
"438 118 CURVE SMOOTH",
"373 118 OFFCURVE",
"334 158 OFFCURVE",
"334 223 CURVE SMOOTH",
"334 367 LINE SMOOTH",
"334 433 OFFCURVE",
"375 472 OFFCURVE",
"438 472 CURVE SMOOTH",
"502 472 OFFCURVE",
"543 433 OFFCURVE",
"543 367 CURVE SMOOTH",
"543 366 LINE",
"559 366 LINE",
"559 367 LINE SMOOTH",
"559 442 OFFCURVE",
"513 487 OFFCURVE",
"438 487 CURVE SMOOTH",
"364 487 OFFCURVE",
"317 442 OFFCURVE",
"317 367 CURVE SMOOTH",
"317 223 LINE SMOOTH",
"317 148 OFFCURVE",
"364 103 OFFCURVE",
"438 103 CURVE SMOOTH"
);
}
);
width = 882;
},
{
layerId = "4F25946F-63AC-42D6-8D55-01CF6A99025B";
paths = (
{
closed = 1;
nodes = (
"578 -53 OFFCURVE",
"740 108 OFFCURVE",
"740 306 CURVE SMOOTH",
"740 504 OFFCURVE",
"578 665 OFFCURVE",
"380 665 CURVE SMOOTH",
"182 665 OFFCURVE",
"20 504 OFFCURVE",
"20 306 CURVE SMOOTH",
"20 108 OFFCURVE",
"182 -53 OFFCURVE",
"380 -53 CURVE SMOOTH"
);
},
{
closed = 1;
nodes = (
"245 69 OFFCURVE",
"145 170 OFFCURVE",
"145 306 CURVE SMOOTH",
"145 442 OFFCURVE",
"245 543 OFFCURVE",
"380 543 CURVE SMOOTH",
"515 543 OFFCURVE",
"615 442 OFFCURVE",
"615 306 CURVE SMOOTH",
"615 170 OFFCURVE",
"515 69 OFFCURVE",
"380 69 CURVE SMOOTH"
);
},
{
closed = 1;
nodes = (
"452 170 OFFCURVE",
"500 214 OFFCURVE",
"505 290 CURVE",
"505 291 LINE",
"400 291 LINE",
"400 277 LINE SMOOTH",
"400 265 OFFCURVE",
"391 257 OFFCURVE",
"378 257 CURVE SMOOTH",
"365 257 OFFCURVE",
"356 265 OFFCURVE",
"356 277 CURVE",
"356 323 LINE",
"356 336 OFFCURVE",
"365 344 OFFCURVE",
"378 344 CURVE SMOOTH",
"391 344 OFFCURVE",
"400 336 OFFCURVE",
"400 323 CURVE",
"400 313 LINE",
"505 313 LINE",
"505 314 LINE",
"504 386 OFFCURVE",
"457 428 OFFCURVE",
"377 428 CURVE SMOOTH",
"297 428 OFFCURVE",
"250 382 OFFCURVE",
"250 302 CURVE SMOOTH",
"250 298 LINE SMOOTH",
"250 217 OFFCURVE",
"297 170 OFFCURVE",
"377 170 CURVE SMOOTH"
);
}
);
width = 760;
}
);
unicode = 00A9;
},
{
color = 1;
glyphname = registered;
lastChange = "2016-10-19 06:30:09 +0000";
layers = (
{
layerId = "262880E7-CFE1-4BDA-902E-E24798F3240A";
paths = (
{
closed = 1;
nodes = (
"640 -72 OFFCURVE",
"802 91 OFFCURVE",
"802 289 CURVE SMOOTH",
"802 487 OFFCURVE",
"640 650 OFFCURVE",
"441 650 CURVE SMOOTH",
"242 650 OFFCURVE",
"80 487 OFFCURVE",
"80 289 CURVE SMOOTH",
"80 91 OFFCURVE",
"242 -72 OFFCURVE",
"441 -72 CURVE SMOOTH"
);
},
{
closed = 1;
nodes = (
"254 -51 OFFCURVE",
"102 101 OFFCURVE",
"102 289 CURVE SMOOTH",
"102 477 OFFCURVE",
"254 629 OFFCURVE",
"441 629 CURVE SMOOTH",
"628 629 OFFCURVE",
"780 477 OFFCURVE",
"780 289 CURVE SMOOTH",
"780 101 OFFCURVE",
"628 -51 OFFCURVE",
"441 -51 CURVE SMOOTH"
);
},
{
closed = 1;
nodes = (
"380 105 LINE",
"380 489 LINE",
"452 489 LINE SMOOTH",
"508 489 OFFCURVE",
"543 453 OFFCURVE",
"543 394 CURVE SMOOTH",
"543 335 OFFCURVE",
"508 299 OFFCURVE",
"452 299 CURVE SMOOTH",
"377 299 LINE",
"377 287 LINE",
"452 287 LINE SMOOTH",
"515 287 OFFCURVE",
"555 328 OFFCURVE",
"555 394 CURVE SMOOTH",
"555 460 OFFCURVE",
"515 500 OFFCURVE",
"452 500 CURVE SMOOTH",
"367 500 LINE",
"367 105 LINE"
);
},
{
closed = 1;
nodes = (
"529 103 LINE",
"464 295 LINE",
"453 291 LINE",
"516 103 LINE"
);
}
